<svg width="24" height="24" viewBox="0 0 24 24" fill="none" xmlns="http://www.w3.org/2000/svg">
<path d="M23.7125 12.7125L18.4625 17.9625C18.2705 18.146 18.0155 18.2489 17.75 18.25C17.5517 18.2497 17.358 18.1904 17.1935 18.0797C17.0289 17.969 16.901 17.8119 16.826 17.6284C16.751 17.4448 16.7322 17.2431 16.7721 17.0489C16.812 16.8546 16.9087 16.6766 17.05 16.5375L20.5875 13H9C8.73478 13 8.48043 12.8946 8.29289 12.7071C8.10536 12.5196 8 12.2652 8 12C8 11.7348 8.10536 11.4804 8.29289 11.2929C8.48043 11.1054 8.73478 11 9 11H20.5875L17.05 7.4625C16.861 7.27519 16.7542 7.02049 16.753 6.75442C16.7519 6.48835 16.8564 6.23272 17.0438 6.04375C17.2311 5.85478 17.4858 5.74796 17.7518 5.74679C18.0179 5.74562 18.2735 5.85019 18.4625 6.0375L23.7125 11.2875C23.9003 11.4771 24.0056 11.7332 24.0056 12C24.0056 12.2668 23.9003 12.5229 23.7125 12.7125ZM9 22H2V2H9C9.26522 2 9.51957 1.89464 9.70711 1.70711C9.89464 1.51957 10 1.26522 10 1C10 0.734784 9.89464 0.48043 9.70711 0.292893C9.51957 0.105357 9.26522 0 9 0H2C1.46957 0 0.960859 0.210714 0.585786 0.585786C0.210714 0.960859 0 1.46957 0 2V22C0 22.5304 0.210714 23.0391 0.585786 23.4142C0.960859 23.7893 1.46957 24 2 24H9C9.26522 24 9.51957 23.8946 9.70711 23.7071C9.89464 23.5196 10 23.2652 10 23C10 22.7348 9.89464 22.4804 9.70711 22.2929C9.51957 22.1054 9.26522 22 9 22Z" fill="#6C7294"/>
</svg>
