<svg width="26" height="24" viewBox="0 0 26 24" fill="none" xmlns="http://www.w3.org/2000/svg">
<path d="M15.0001 5.99997V11.425L19.7001 14.1375C19.889 14.2483 20.0363 14.4181 20.1194 14.6207C20.2024 14.8234 20.2167 15.0477 20.1599 15.2593C20.1031 15.4708 19.9784 15.6578 19.805 15.7916C19.6316 15.9255 19.4191 15.9986 19.2001 16C19.0235 16.0049 18.8494 15.9571 18.7001 15.8625L13.5001 12.8625H13.4751L13.4251 12.825L13.3876 12.8L13.3501 12.775L13.3126 12.7375L13.2876 12.7125C13.2626 12.7 13.2501 12.675 13.2376 12.6625L13.2126 12.6375L13.1876 12.5875L13.1626 12.55L13.1376 12.5125C13.1298 12.5066 13.1235 12.4991 13.1192 12.4904C13.1149 12.4817 13.1126 12.4722 13.1126 12.4625L13.0876 12.425C13.0876 12.4125 13.0751 12.4 13.0751 12.375C13.0706 12.3699 13.0671 12.364 13.065 12.3575C13.0628 12.3511 13.062 12.3442 13.0626 12.3375L13.0376 12.2875C13.0382 12.2807 13.0374 12.2739 13.0352 12.2674C13.0331 12.261 13.0296 12.255 13.0251 12.25C13.0251 12.225 13.0251 12.2125 13.0126 12.2V12.15C13.0126 12.125 13.0001 12.1125 13.0001 12.1V5.99997C13.0001 5.73475 13.1055 5.4804 13.293 5.29286C13.4805 5.10533 13.7349 4.99997 14.0001 4.99997C14.2653 4.99997 14.5197 5.10533 14.7072 5.29286C14.8947 5.4804 15.0001 5.73475 15.0001 5.99997ZM22.4876 3.51247C20.2337 1.26679 17.1818 0.00585937 14.0001 0.00585938C10.8184 0.00585937 7.76646 1.26679 5.5126 3.51247L2.9751 6.04997V3.46247C2.9751 3.19725 2.86975 2.9429 2.68221 2.75536C2.49467 2.56783 2.24032 2.46247 1.9751 2.46247C1.70989 2.46247 1.45553 2.56783 1.268 2.75536C1.08046 2.9429 0.975103 3.19725 0.975103 3.46247V8.46247C0.973074 8.49629 0.977312 8.53019 0.987603 8.56247V8.61247C0.987603 8.62497 1.0001 8.63747 1.0001 8.66247C1.0001 8.68747 1.0126 8.68747 1.0126 8.71247C1.01203 8.71924 1.01284 8.72606 1.01499 8.73251C1.01714 8.73895 1.02058 8.7449 1.0251 8.74997C1.0251 8.77497 1.0376 8.78747 1.0376 8.79997C1.04755 8.81464 1.05197 8.83235 1.0501 8.84997L1.0751 8.88747C1.0876 8.89997 1.0876 8.92497 1.1001 8.93747L1.1251 8.97497C1.1251 8.98747 1.1376 8.99997 1.1501 9.02497L1.1751 9.06247L1.2001 9.09997L1.3501 9.23747L1.3751 9.26247L1.4251 9.29997L1.4626 9.32497L1.5126 9.34997H1.5501L1.6001 9.37497H1.6376L1.6876 9.39997H6.9751C7.24032 9.39997 7.49467 9.29461 7.68221 9.10708C7.86975 8.91954 7.9751 8.66519 7.9751 8.39997C7.9751 8.13475 7.86975 7.8804 7.68221 7.69286C7.49467 7.50533 7.24032 7.39997 6.9751 7.39997H4.3876L6.9251 4.92497C8.32407 3.52756 10.1059 2.57625 12.0454 2.1913C13.9849 1.80635 15.995 2.00504 17.8216 2.76224C19.6483 3.51944 21.2094 4.80117 22.3077 6.44542C23.406 8.08967 23.9922 10.0226 23.9922 12C23.9922 13.9773 23.406 15.9103 22.3077 17.5545C21.2094 19.1988 19.6483 20.4805 17.8216 21.2377C15.995 21.9949 13.9849 22.1936 12.0454 21.8086C10.1059 21.4237 8.32407 20.4724 6.9251 19.075C6.83313 18.9809 6.72327 18.9061 6.60199 18.855C6.48071 18.804 6.35044 18.7777 6.21885 18.7777C6.08726 18.7777 5.957 18.804 5.83571 18.855C5.71443 18.9061 5.60458 18.9809 5.5126 19.075C5.32559 19.2624 5.22057 19.5164 5.22057 19.7812C5.22057 20.046 5.32559 20.3 5.5126 20.4875C7.76363 22.7385 10.8167 24.0031 14.0001 24.0031C17.1835 24.0031 20.2366 22.7385 22.4876 20.4875C24.7386 18.2364 26.0032 15.1834 26.0032 12C26.0032 8.81654 24.7386 5.76349 22.4876 3.51247Z" fill="#3D3D3D"/>
<path d="M15.0001 5.99997V11.425L19.7001 14.1375C19.889 14.2483 20.0363 14.4181 20.1194 14.6207C20.2024 14.8234 20.2167 15.0477 20.1599 15.2593C20.1031 15.4708 19.9784 15.6578 19.805 15.7916C19.6316 15.9255 19.4191 15.9986 19.2001 16C19.0235 16.0049 18.8494 15.9571 18.7001 15.8625L13.5001 12.8625H13.4751L13.4251 12.825L13.3876 12.8L13.3501 12.775L13.3126 12.7375L13.2876 12.7125C13.2626 12.7 13.2501 12.675 13.2376 12.6625L13.2126 12.6375L13.1876 12.5875L13.1626 12.55L13.1376 12.5125C13.1298 12.5066 13.1235 12.4991 13.1192 12.4904C13.1149 12.4817 13.1126 12.4722 13.1126 12.4625L13.0876 12.425C13.0876 12.4125 13.0751 12.4 13.0751 12.375C13.0706 12.3699 13.0671 12.364 13.065 12.3575C13.0628 12.3511 13.062 12.3442 13.0626 12.3375L13.0376 12.2875C13.0382 12.2807 13.0374 12.2739 13.0352 12.2674C13.0331 12.261 13.0296 12.255 13.0251 12.25C13.0251 12.225 13.0251 12.2125 13.0126 12.2V12.15C13.0126 12.125 13.0001 12.1125 13.0001 12.1V5.99997C13.0001 5.73475 13.1055 5.4804 13.293 5.29286C13.4805 5.10533 13.7349 4.99997 14.0001 4.99997C14.2653 4.99997 14.5197 5.10533 14.7072 5.29286C14.8947 5.4804 15.0001 5.73475 15.0001 5.99997ZM22.4876 3.51247C20.2337 1.26679 17.1818 0.00585937 14.0001 0.00585938C10.8184 0.00585937 7.76646 1.26679 5.5126 3.51247L2.9751 6.04997V3.46247C2.9751 3.19725 2.86975 2.9429 2.68221 2.75536C2.49467 2.56783 2.24032 2.46247 1.9751 2.46247C1.70989 2.46247 1.45553 2.56783 1.268 2.75536C1.08046 2.9429 0.975103 3.19725 0.975103 3.46247V8.46247C0.973074 8.49629 0.977312 8.53019 0.987603 8.56247V8.61247C0.987603 8.62497 1.0001 8.63747 1.0001 8.66247C1.0001 8.68747 1.0126 8.68747 1.0126 8.71247C1.01203 8.71924 1.01284 8.72606 1.01499 8.73251C1.01714 8.73895 1.02058 8.7449 1.0251 8.74997C1.0251 8.77497 1.0376 8.78747 1.0376 8.79997C1.04755 8.81464 1.05197 8.83235 1.0501 8.84997L1.0751 8.88747C1.0876 8.89997 1.0876 8.92497 1.1001 8.93747L1.1251 8.97497C1.1251 8.98747 1.1376 8.99997 1.1501 9.02497L1.1751 9.06247L1.2001 9.09997L1.3501 9.23747L1.3751 9.26247L1.4251 9.29997L1.4626 9.32497L1.5126 9.34997H1.5501L1.6001 9.37497H1.6376L1.6876 9.39997H6.9751C7.24032 9.39997 7.49467 9.29461 7.68221 9.10708C7.86975 8.91954 7.9751 8.66519 7.9751 8.39997C7.9751 8.13475 7.86975 7.8804 7.68221 7.69286C7.49467 7.50533 7.24032 7.39997 6.9751 7.39997H4.3876L6.9251 4.92497C8.32407 3.52756 10.1059 2.57625 12.0454 2.1913C13.9849 1.80635 15.995 2.00504 17.8216 2.76224C19.6483 3.51944 21.2094 4.80117 22.3077 6.44542C23.406 8.08967 23.9922 10.0226 23.9922 12C23.9922 13.9773 23.406 15.9103 22.3077 17.5545C21.2094 19.1988 19.6483 20.4805 17.8216 21.2377C15.995 21.9949 13.9849 22.1936 12.0454 21.8086C10.1059 21.4237 8.32407 20.4724 6.9251 19.075C6.83313 18.9809 6.72327 18.9061 6.60199 18.855C6.48071 18.804 6.35044 18.7777 6.21885 18.7777C6.08726 18.7777 5.957 18.804 5.83571 18.855C5.71443 18.9061 5.60458 18.9809 5.5126 19.075C5.32559 19.2624 5.22057 19.5164 5.22057 19.7812C5.22057 20.046 5.32559 20.3 5.5126 20.4875C7.76363 22.7385 10.8167 24.0031 14.0001 24.0031C17.1835 24.0031 20.2366 22.7385 22.4876 20.4875C24.7386 18.2364 26.0032 15.1834 26.0032 12C26.0032 8.81654 24.7386 5.76349 22.4876 3.51247Z" fill="url(#paint0_linear_607_3153)"/>
<defs>
<linearGradient id="paint0_linear_607_3153" x1="13.4889" y1="0.00585937" x2="13.4889" y2="24.0031" gradientUnits="userSpaceOnUse">
<stop stop-color="#53CEC1"/>
<stop offset="1" stop-color="#049BB8"/>
</linearGradient>
</defs>
</svg>
