<svg width="24" height="27" viewBox="0 0 24 27" fill="none" xmlns="http://www.w3.org/2000/svg">
<path d="M23.6002 18.9875C22.8627 17.7125 21.9752 15.2875 21.9752 11V10.1125C21.9752 4.575 17.5377 0.0375 12.0752 0H12.0002C10.6887 0.0016405 9.39024 0.2616 8.17913 0.765035C6.96802 1.26847 5.86792 2.00552 4.94166 2.93411C4.01539 3.86269 3.2811 4.96463 2.78069 6.177C2.28029 7.38936 2.02358 8.68842 2.02523 10V11C2.02523 15.2875 1.13773 17.7125 0.400227 18.9875C0.221865 19.2913 0.12693 19.6369 0.125029 19.9892C0.123128 20.3415 0.214329 20.6881 0.389401 20.9938C0.564473 21.2996 0.817204 21.5536 1.12202 21.7303C1.42683 21.907 1.77291 22 2.12523 22H7.00023C7.00023 23.3261 7.52701 24.5979 8.46469 25.5355C9.40238 26.4732 10.6741 27 12.0002 27C13.3263 27 14.5981 26.4732 15.5358 25.5355C16.4734 24.5979 17.0002 23.3261 17.0002 22H21.8752C22.2275 22.0022 22.574 21.9108 22.8793 21.7351C23.1846 21.5594 23.4377 21.3057 23.6127 21C23.7862 20.6926 23.8764 20.3451 23.8742 19.9921C23.872 19.6391 23.7776 19.2928 23.6002 18.9875ZM12.0002 25C11.2056 24.9967 10.4444 24.6796 9.88254 24.1177C9.32065 23.5558 9.00352 22.7946 9.00023 22H15.0002C14.9969 22.7946 14.6798 23.5558 14.1179 24.1177C13.556 24.6796 12.7949 24.9967 12.0002 25ZM2.12523 20C2.98773 18.5 4.02523 15.7375 4.02523 11V10C4.02194 8.95061 4.22579 7.91088 4.6251 6.94042C5.02441 5.96996 5.61132 5.08785 6.35219 4.34466C7.09307 3.60146 7.97334 3.01179 8.94254 2.60944C9.91175 2.2071 10.9508 1.99999 12.0002 2H12.0627C16.4252 2.025 19.9752 5.675 19.9752 10.1125V11C19.9752 15.7375 21.0127 18.5 21.8752 20H2.12523Z" fill="#3D3D3D"/>
</svg>
