<svg width="28" height="28" viewBox="0 0 28 28" fill="none" xmlns="http://www.w3.org/2000/svg">
<path d="M27.6874 11.0376C27.6564 10.8978 27.5957 10.7663 27.5094 10.652C27.4232 10.5377 27.3134 10.4433 27.1874 10.3751L24.2124 8.7251C24.053 8.40172 23.8734 8.08861 23.6749 7.7876L23.7374 4.3876C23.7386 4.24499 23.7103 4.10368 23.6544 3.97248C23.5985 3.84129 23.5161 3.72303 23.4124 3.6251C21.9311 2.28206 20.1793 1.2719 18.2749 0.662599C18.1382 0.619955 17.9939 0.606818 17.8517 0.624056C17.7095 0.641295 17.5726 0.688516 17.4499 0.762599L14.5374 2.5126C14.1749 2.5001 13.8249 2.5001 13.4624 2.5126L10.5499 0.762599C10.4273 0.688516 10.2904 0.641295 10.1482 0.624056C10.006 0.606818 9.8617 0.619955 9.72493 0.662599C7.81801 1.27236 6.06547 2.28721 4.58743 3.6376C4.48286 3.73217 4.39975 3.84803 4.34369 3.97739C4.28763 4.10676 4.25992 4.24663 4.26243 4.3876L4.32493 7.7876C4.12493 8.0876 3.94993 8.4001 3.77493 8.7251L0.799933 10.3751C0.675834 10.444 0.568049 10.5389 0.483922 10.6532C0.399795 10.7675 0.341303 10.8986 0.312433 11.0376C-0.112608 12.9897 -0.112608 15.0105 0.312433 16.9626C0.343482 17.1024 0.404191 17.2339 0.490452 17.3482C0.576714 17.4625 0.686517 17.5569 0.812433 17.6251L3.78743 19.2751C3.94691 19.5985 4.12643 19.9116 4.32493 20.2126L4.26243 23.6126C4.26129 23.7552 4.28956 23.8965 4.34548 24.0277C4.4014 24.1589 4.48376 24.2772 4.58743 24.3751C6.06873 25.7181 7.82053 26.7283 9.72493 27.3376C9.8617 27.3802 10.006 27.3934 10.1482 27.3761C10.2904 27.3589 10.4273 27.3117 10.5499 27.2376L13.4624 25.4876H14.5374L17.4624 27.2376C17.6145 27.3376 17.793 27.3898 17.9749 27.3876C18.0766 27.3832 18.1773 27.3664 18.2749 27.3376C20.1819 26.7278 21.9344 25.713 23.4124 24.3626C23.517 24.268 23.6001 24.1522 23.6562 24.0228C23.7122 23.8934 23.7399 23.7536 23.7374 23.6126L23.6749 20.2126C23.8749 19.9126 24.0499 19.6001 24.2249 19.2751L27.1999 17.6251C27.324 17.5562 27.4318 17.4614 27.5159 17.347C27.6001 17.2327 27.6586 17.1016 27.6874 16.9626C28.1125 15.0105 28.1125 12.9897 27.6874 11.0376ZM25.8124 16.1001L22.9749 17.6751C22.7949 17.7797 22.651 17.9367 22.5624 18.1251C22.3568 18.5511 22.1186 18.9607 21.8499 19.3501C21.7358 19.5248 21.675 19.7289 21.6749 19.9376L21.7249 23.1751C20.6487 24.0914 19.4167 24.807 18.0874 25.2876L15.2999 23.6126C15.1444 23.522 14.9675 23.4746 14.7874 23.4751H14.7124C14.2382 23.5126 13.7617 23.5126 13.2874 23.4751C13.0825 23.4639 12.8786 23.5116 12.6999 23.6126L9.91243 25.2876C8.58479 24.8093 7.35302 24.0982 6.27493 23.1876L6.32493 19.9376C6.32486 19.7289 6.26405 19.5248 6.14993 19.3501C5.88587 18.9578 5.64786 18.5486 5.43743 18.1251C5.34514 17.9392 5.20214 17.7832 5.02493 17.6751L2.18743 16.1001C1.93735 14.7113 1.93735 13.2889 2.18743 11.9001L5.02493 10.3251C5.20495 10.2205 5.34883 10.0635 5.43743 9.8751C5.64308 9.44905 5.88129 9.03951 6.14993 8.6501C6.26405 8.4754 6.32486 8.27127 6.32493 8.0626L6.27493 4.8251C7.35112 3.90876 8.5832 3.19322 9.91243 2.7126L12.6999 4.3876C12.8781 4.48992 13.0824 4.53773 13.2874 4.5251C13.7617 4.48759 14.2382 4.48759 14.7124 4.5251C14.9174 4.53629 15.1212 4.48858 15.2999 4.3876L18.0874 2.7126C19.4151 3.19091 20.6468 3.90203 21.7249 4.8126L21.6749 8.0626C21.675 8.27127 21.7358 8.4754 21.8499 8.6501C22.114 9.04239 22.352 9.45161 22.5624 9.8751C22.6547 10.061 22.7977 10.217 22.9749 10.3251L25.8124 11.9001C26.0625 13.2889 26.0625 14.7113 25.8124 16.1001ZM13.9999 7.0001C12.6155 7.0001 11.2621 7.41064 10.1109 8.17981C8.9598 8.94898 8.06259 10.0422 7.53278 11.3213C7.00296 12.6004 6.86434 14.0079 7.13444 15.3657C7.40453 16.7236 8.07122 17.9709 9.05019 18.9498C10.0292 19.9288 11.2764 20.5955 12.6343 20.8656C13.9922 21.1357 15.3996 20.9971 16.6787 20.4673C17.9578 19.9374 19.0511 19.0402 19.8202 17.8891C20.5894 16.7379 20.9999 15.3846 20.9999 14.0001C20.9999 12.1436 20.2624 10.3631 18.9497 9.05035C17.6369 7.7376 15.8565 7.0001 13.9999 7.0001ZM13.9999 19.0001C13.011 19.0001 12.0443 18.7069 11.2221 18.1574C10.3998 17.608 9.75898 16.8272 9.38054 15.9135C9.0021 14.9999 8.90308 13.9946 9.09601 13.0246C9.28893 12.0547 9.76514 11.1638 10.4644 10.4646C11.1637 9.7653 12.0546 9.2891 13.0245 9.09617C13.9944 8.90325 14.9997 9.00226 15.9134 9.3807C16.827 9.75914 17.6079 10.4 18.1573 11.2222C18.7067 12.0445 18.9999 13.0112 18.9999 14.0001C18.9999 15.3262 18.4732 16.598 17.5355 17.5356C16.5978 18.4733 15.326 19.0001 13.9999 19.0001Z" fill="#3D3D3D"/>
</svg>
