<svg width="32" height="23" viewBox="0 0 32 23" fill="none" xmlns="http://www.w3.org/2000/svg">
<path d="M31.1 13.2999C30.9282 13.4322 30.7168 13.5027 30.5 13.4999C30.3448 13.4999 30.1916 13.4637 30.0528 13.3943C29.9139 13.3249 29.7931 13.2241 29.7 13.0999C29.0973 12.2897 28.3127 11.6324 27.4096 11.1808C26.5064 10.7292 25.5098 10.496 24.5 10.4999C24.2348 10.4999 23.9804 10.3945 23.7929 10.207C23.6054 10.0195 23.5 9.7651 23.5 9.49989C23.5 9.23467 23.6054 8.98032 23.7929 8.79278C23.9804 8.60524 24.2348 8.49989 24.5 8.49989C25.0691 8.49928 25.6264 8.33679 26.1066 8.03139C26.5869 7.72599 26.9703 7.29029 27.2123 6.77513C27.4542 6.25998 27.5446 5.68664 27.4729 5.12204C27.4012 4.55744 27.1704 4.02487 26.8074 3.58652C26.4444 3.14817 25.9643 2.82211 25.4229 2.64642C24.8816 2.47072 24.3014 2.45264 23.7502 2.59427C23.199 2.73591 22.6994 3.03142 22.3098 3.44631C21.9202 3.8612 21.6567 4.37835 21.55 4.93739C21.5306 5.07107 21.4843 5.19943 21.4139 5.31473C21.3436 5.43002 21.2506 5.52987 21.1405 5.60824C21.0305 5.6866 20.9057 5.74187 20.7738 5.77069C20.6418 5.79952 20.5054 5.80131 20.3727 5.77596C20.24 5.7506 20.1138 5.69863 20.0018 5.62318C19.8898 5.54773 19.7942 5.45036 19.7208 5.33695C19.6474 5.22354 19.5978 5.09643 19.5749 4.96331C19.552 4.83019 19.5563 4.6938 19.5875 4.56239C19.7359 3.78467 20.0668 3.0533 20.553 2.42847C21.0393 1.80364 21.667 1.30322 22.3844 0.968389C23.1019 0.63356 23.8886 0.473897 24.6798 0.502541C25.4711 0.531185 26.2442 0.747317 26.9355 1.13315C27.6269 1.51898 28.2168 2.06348 28.6566 2.72183C29.0964 3.38019 29.3735 4.13357 29.4653 4.91999C29.557 5.7064 29.4607 6.50335 29.1842 7.24525C28.9077 7.98715 28.459 8.65279 27.875 9.18739C29.2341 9.77668 30.415 10.7119 31.3 11.8999C31.3788 12.0049 31.4361 12.1245 31.4687 12.2517C31.5013 12.3789 31.5085 12.5113 31.49 12.6413C31.4714 12.7713 31.4274 12.8964 31.3605 13.0094C31.2936 13.1224 31.2051 13.2211 31.1 13.2999ZM24.1 21.5624C24.2129 21.8016 24.2277 22.0754 24.1412 22.3254C24.0548 22.5753 23.874 22.7815 23.6375 22.8999C23.4995 22.9613 23.3509 22.9953 23.2 22.9999C23.0126 22.9986 22.8293 22.9453 22.6704 22.846C22.5115 22.7467 22.3833 22.6052 22.3 22.4374C21.7234 21.2578 20.8271 20.2638 19.7134 19.5686C18.5996 18.8733 17.313 18.5047 16 18.5047C14.687 18.5047 13.4004 18.8733 12.2866 19.5686C11.1729 20.2638 10.2766 21.2578 9.7 22.4374C9.64262 22.5556 9.56249 22.6614 9.46419 22.7487C9.3659 22.8359 9.25136 22.903 9.12714 22.9459C9.00291 22.9889 8.87144 23.0069 8.74024 22.999C8.60903 22.9911 8.48068 22.9574 8.3625 22.8999C8.126 22.7815 7.94521 22.5753 7.85878 22.3254C7.77235 22.0754 7.78714 21.8016 7.9 21.5624C8.82935 19.6488 10.4057 18.1256 12.35 17.2624C11.3548 16.4996 10.6236 15.4441 10.2591 14.2443C9.89458 13.0445 9.91516 11.7607 10.3179 10.5732C10.7206 9.38569 11.4853 8.35422 12.5045 7.62369C13.5236 6.89316 14.7461 6.5003 16 6.5003C17.2539 6.5003 18.4764 6.89316 19.4955 7.62369C20.5147 8.35422 21.2794 9.38569 21.6821 10.5732C22.0848 11.7607 22.1054 13.0445 21.7409 14.2443C21.3765 15.4441 20.6452 16.4996 19.65 17.2624C21.5943 18.1256 23.1707 19.6488 24.1 21.5624ZM16 16.4999C16.7911 16.4999 17.5645 16.2653 18.2223 15.8258C18.8801 15.3862 19.3928 14.7615 19.6955 14.0306C19.9983 13.2997 20.0775 12.4955 19.9231 11.7195C19.7688 10.9436 19.3878 10.2309 18.8284 9.67146C18.269 9.11205 17.5563 8.73109 16.7804 8.57675C16.0044 8.42241 15.2002 8.50162 14.4693 8.80437C13.7384 9.10712 13.1137 9.61981 12.6741 10.2776C12.2346 10.9354 12 11.7088 12 12.4999C12.0033 13.5597 12.4258 14.5752 13.1752 15.3247C13.9247 16.0741 14.9402 16.4966 16 16.4999ZM8.5 9.49989C8.5 9.23467 8.39465 8.98032 8.20711 8.79278C8.01957 8.60524 7.76522 8.49989 7.5 8.49989C6.93087 8.49928 6.37365 8.33679 5.8934 8.03139C5.41315 7.72599 5.02967 7.29029 4.78774 6.77513C4.54582 6.25998 4.45542 5.68664 4.5271 5.12204C4.59878 4.55744 4.82959 4.02487 5.19258 3.58652C5.55556 3.14817 6.03575 2.82211 6.57709 2.64642C7.11842 2.47072 7.69857 2.45264 8.24979 2.59427C8.80102 2.73591 9.30058 3.03142 9.69017 3.44631C10.0798 3.8612 10.3433 4.37835 10.45 4.93739C10.4694 5.07107 10.5157 5.19943 10.5861 5.31473C10.6564 5.43002 10.7495 5.52987 10.8595 5.60824C10.9695 5.6866 11.0943 5.74187 11.2262 5.77069C11.3582 5.79952 11.4946 5.80131 11.6273 5.77596C11.76 5.7506 11.8862 5.69863 11.9982 5.62318C12.1102 5.54773 12.2058 5.45036 12.2792 5.33695C12.3526 5.22354 12.4022 5.09643 12.4251 4.96331C12.4481 4.83019 12.4438 4.6938 12.4125 4.56239C12.2641 3.78467 11.9332 3.0533 11.447 2.42847C10.9607 1.80364 10.333 1.30322 9.61557 0.968389C8.89811 0.63356 8.11139 0.473897 7.32017 0.502541C6.52895 0.531185 5.75583 0.747317 5.06447 1.13315C4.3731 1.51898 3.78324 2.06348 3.34344 2.72183C2.90363 3.38019 2.62646 4.13357 2.53473 4.91999C2.443 5.7064 2.53934 6.50335 2.81582 7.24525C3.09229 7.98715 3.541 8.65279 4.125 9.18739C2.7659 9.77668 1.58499 10.7119 0.700004 11.8999C0.540874 12.1121 0.472547 12.3788 0.510055 12.6413C0.547562 12.9039 0.687831 13.1408 0.900004 13.2999C1.07177 13.4322 1.28319 13.5027 1.5 13.4999C1.65525 13.4999 1.80836 13.4637 1.94722 13.3943C2.08607 13.3249 2.20686 13.2241 2.3 13.0999C2.90274 12.2897 3.68727 11.6324 4.59045 11.1808C5.49363 10.7292 6.49023 10.496 7.5 10.4999C7.76522 10.4999 8.01957 10.3945 8.20711 10.207C8.39465 10.0195 8.5 9.7651 8.5 9.49989Z" fill="#6B7294"/>
</svg>
