<svg width="26" height="24" viewBox="0 0 26 24" fill="none" xmlns="http://www.w3.org/2000/svg">
<path d="M13 6.00001V11.425L17.7 14.1375C17.8889 14.2483 18.0362 14.4181 18.1192 14.6208C18.2023 14.8234 18.2165 15.0478 18.1597 15.2593C18.1029 15.4708 17.9783 15.6579 17.8049 15.7917C17.6315 15.9255 17.419 15.9987 17.2 16C17.0233 16.005 16.8492 15.9571 16.7 15.8625L11.5 12.8625H11.475L11.425 12.825L11.3875 12.8L11.35 12.775L11.3125 12.7375L11.2875 12.7125C11.2625 12.7 11.25 12.675 11.2375 12.6625L11.2125 12.6375L11.1875 12.5875L11.1625 12.55L11.1375 12.5125C11.1297 12.5067 11.1234 12.4991 11.1191 12.4905C11.1147 12.4818 11.1125 12.4722 11.1125 12.4625L11.0875 12.425C11.0875 12.4125 11.075 12.4 11.075 12.375C11.0704 12.3699 11.067 12.364 11.0648 12.3575C11.0627 12.3511 11.0619 12.3443 11.0625 12.3375L11.0375 12.2875C11.038 12.2807 11.0372 12.2739 11.0351 12.2675C11.0329 12.261 11.0295 12.2551 11.025 12.25C11.025 12.225 11.025 12.2125 11.0125 12.2V12.15C11.0125 12.125 11 12.1125 11 12.1V6.00001C11 5.73479 11.1053 5.48044 11.2928 5.2929C11.4804 5.10536 11.7347 5.00001 12 5.00001C12.2652 5.00001 12.5195 5.10536 12.7071 5.2929C12.8946 5.48044 13 5.73479 13 6.00001ZM24.85 9.02501C24.8625 9.00001 24.875 8.98751 24.875 8.97501L24.9 8.93751C24.9125 8.92501 24.9125 8.90001 24.925 8.88751L24.95 8.85001C24.9481 8.83239 24.9525 8.81467 24.9625 8.80001C24.9625 8.78751 24.975 8.77501 24.975 8.75001C24.9795 8.74493 24.9829 8.73899 24.9851 8.73254C24.9872 8.7261 24.988 8.71928 24.9875 8.71251C24.9875 8.68751 25 8.67501 25 8.66251C25 8.65001 25.0125 8.62501 25.0125 8.61251V8.56251C25.0227 8.53023 25.027 8.49633 25.025 8.46251V3.46251C25.025 3.19729 24.9196 2.94293 24.7321 2.7554C24.5445 2.56786 24.2902 2.46251 24.025 2.46251C23.7597 2.46251 23.5054 2.56786 23.3178 2.7554C23.1303 2.94293 23.025 3.19729 23.025 3.46251V6.05001L20.4875 3.51251C18.809 1.8349 16.6708 0.692637 14.3432 0.230123C12.0156 -0.232391 9.60309 0.00561559 7.41074 0.914052C5.2184 1.82249 3.34462 3.36056 2.02632 5.33382C0.708024 7.30707 0.00439453 9.6269 0.00439453 12C0.00439453 14.3731 0.708024 16.6929 2.02632 18.6662C3.34462 20.6395 5.2184 22.1775 7.41074 23.086C9.60309 23.9944 12.0156 24.2324 14.3432 23.7699C16.6708 23.3074 18.809 22.1651 20.4875 20.4875C20.6745 20.3 20.7795 20.0461 20.7795 19.7813C20.7795 19.5165 20.6745 19.2625 20.4875 19.075C20.3955 18.9809 20.2856 18.9061 20.1643 18.8551C20.0431 18.804 19.9128 18.7777 19.7812 18.7777C19.6496 18.7777 19.5193 18.804 19.3981 18.8551C19.2768 18.9061 19.1669 18.9809 19.075 19.075C17.676 20.4724 15.8941 21.4237 13.9546 21.8087C12.0151 22.1936 10.005 21.9949 8.17842 21.2377C6.35181 20.4805 4.79068 19.1988 3.69235 17.5546C2.59403 15.9103 2.00782 13.9773 2.00782 12C2.00782 10.0227 2.59403 8.08971 3.69235 6.44546C4.79068 4.80121 6.35181 3.51948 8.17842 2.76227C10.005 2.00507 12.0151 1.80639 13.9546 2.19134C15.8941 2.57629 17.676 3.52759 19.075 4.92501L21.6125 7.46251H19.025C18.7597 7.46251 18.5054 7.56786 18.3178 7.7554C18.1303 7.94294 18.025 8.19729 18.025 8.46251C18.025 8.72772 18.1303 8.98208 18.3178 9.16961C18.5054 9.35715 18.7597 9.46251 19.025 9.46251H24.3125L24.3625 9.43751H24.4L24.45 9.41251H24.4875L24.5375 9.38751L24.575 9.36251L24.625 9.32501L24.65 9.30001L24.8 9.16251L24.825 9.12501L24.85 9.02501Z" fill="#6B7294"/>
</svg>
