<svg width="656" height="244" viewBox="0 0 656 244" fill="none" xmlns="http://www.w3.org/2000/svg">
<path d="M15.048 240.16C14.3973 240.16 13.8053 239.995 13.272 239.664C12.7493 239.333 12.3387 238.891 12.04 238.336C11.9653 238.208 11.928 238.085 11.928 237.968C11.928 237.787 11.9973 237.643 12.136 237.536C12.2747 237.419 12.4133 237.36 12.552 237.36C12.6693 237.36 12.776 237.392 12.872 237.456C12.9787 237.52 13.0693 237.6 13.144 237.696C13.3573 238.059 13.624 238.347 13.944 238.56C14.264 238.773 14.632 238.88 15.048 238.88C15.4853 238.88 15.8693 238.784 16.2 238.592C16.5413 238.4 16.808 238.139 17 237.808C17.2027 237.467 17.304 237.083 17.304 236.656V229.44C17.304 229.259 17.368 229.109 17.496 228.992C17.6347 228.864 17.8 228.8 17.992 228.8C18.184 228.8 18.3387 228.864 18.456 228.992C18.584 229.109 18.648 229.259 18.648 229.44V236.656C18.648 237.307 18.488 237.899 18.168 238.432C17.8587 238.965 17.432 239.387 16.888 239.696C16.3547 240.005 15.7413 240.16 15.048 240.16ZM28.0469 231.648C28.2282 231.648 28.3775 231.712 28.4949 231.84C28.6229 231.957 28.6869 232.107 28.6869 232.288V239.344C28.6869 239.525 28.6229 239.68 28.4949 239.808C28.3775 239.936 28.2282 240 28.0469 240C27.8549 240 27.7002 239.936 27.5829 239.808C27.4655 239.68 27.4069 239.525 27.4069 239.344V237.824L27.7109 237.792C27.7109 238.027 27.6309 238.283 27.4709 238.56C27.3109 238.837 27.0922 239.099 26.8149 239.344C26.5375 239.579 26.2069 239.776 25.8229 239.936C25.4495 240.085 25.0442 240.16 24.6069 240.16C23.8815 240.16 23.2309 239.973 22.6549 239.6C22.0789 239.216 21.6202 238.699 21.2789 238.048C20.9482 237.397 20.7829 236.656 20.7829 235.824C20.7829 234.981 20.9482 234.24 21.2789 233.6C21.6202 232.949 22.0789 232.443 22.6549 232.08C23.2309 231.707 23.8709 231.52 24.5749 231.52C25.0335 231.52 25.4602 231.595 25.8549 231.744C26.2495 231.893 26.5909 232.096 26.8789 232.352C27.1775 232.608 27.4069 232.891 27.5669 233.2C27.7375 233.509 27.8229 233.819 27.8229 234.128L27.4069 234.032V232.288C27.4069 232.107 27.4655 231.957 27.5829 231.84C27.7002 231.712 27.8549 231.648 28.0469 231.648ZM24.7509 238.976C25.2842 238.976 25.7535 238.837 26.1589 238.56C26.5749 238.283 26.8949 237.909 27.1189 237.44C27.3535 236.96 27.4709 236.421 27.4709 235.824C27.4709 235.237 27.3535 234.709 27.1189 234.24C26.8949 233.76 26.5749 233.387 26.1589 233.12C25.7535 232.843 25.2842 232.704 24.7509 232.704C24.2282 232.704 23.7589 232.837 23.3429 233.104C22.9375 233.371 22.6175 233.739 22.3829 234.208C22.1482 234.677 22.0309 235.216 22.0309 235.824C22.0309 236.421 22.1429 236.96 22.3669 237.44C22.6015 237.909 22.9215 238.283 23.3269 238.56C23.7429 238.837 24.2175 238.976 24.7509 238.976ZM35.171 231.52C35.8963 231.52 36.467 231.669 36.883 231.968C37.299 232.267 37.5923 232.667 37.763 233.168C37.9443 233.669 38.035 234.229 38.035 234.848V239.344C38.035 239.525 37.971 239.68 37.843 239.808C37.7257 239.936 37.5763 240 37.395 240C37.2137 240 37.059 239.936 36.931 239.808C36.8137 239.68 36.755 239.525 36.755 239.344V234.88C36.755 234.475 36.691 234.112 36.563 233.792C36.4457 233.461 36.243 233.2 35.955 233.008C35.6777 232.805 35.2937 232.704 34.803 232.704C34.355 232.704 33.9443 232.805 33.571 233.008C33.1977 233.2 32.899 233.461 32.675 233.792C32.451 234.112 32.339 234.475 32.339 234.88V239.344C32.339 239.525 32.275 239.68 32.147 239.808C32.0297 239.936 31.8803 240 31.699 240C31.5177 240 31.363 239.936 31.235 239.808C31.1177 239.68 31.059 239.525 31.059 239.344V232.368C31.059 232.187 31.1177 232.037 31.235 231.92C31.363 231.792 31.5177 231.728 31.699 231.728C31.891 231.728 32.0457 231.792 32.163 231.92C32.2803 232.037 32.339 232.187 32.339 232.368V233.504L32.019 233.856C32.0723 233.579 32.195 233.301 32.387 233.024C32.579 232.736 32.819 232.48 33.107 232.256C33.395 232.032 33.715 231.856 34.067 231.728C34.419 231.589 34.787 231.52 35.171 231.52ZM47.305 240C47.113 240 46.953 239.936 46.825 239.808C46.697 239.68 46.633 239.525 46.633 239.344V230.24L46.825 230.464L45.017 231.712C44.9103 231.787 44.7877 231.824 44.649 231.824C44.4677 231.824 44.313 231.76 44.185 231.632C44.057 231.493 43.993 231.339 43.993 231.168C43.993 230.933 44.105 230.747 44.329 230.608L46.873 228.928C46.9583 228.875 47.0437 228.837 47.129 228.816C47.2143 228.795 47.2997 228.789 47.385 228.8C47.577 228.8 47.7263 228.864 47.833 228.992C47.9503 229.109 48.009 229.259 48.009 229.44V239.344C48.009 239.525 47.9397 239.68 47.801 239.808C47.673 239.936 47.5077 240 47.305 240Z" fill="#383B4D"/>
<path d="M126.048 240.16C125.397 240.16 124.805 239.995 124.272 239.664C123.749 239.333 123.339 238.891 123.04 238.336C122.965 238.208 122.928 238.085 122.928 237.968C122.928 237.787 122.997 237.643 123.136 237.536C123.275 237.419 123.413 237.36 123.552 237.36C123.669 237.36 123.776 237.392 123.872 237.456C123.979 237.52 124.069 237.6 124.144 237.696C124.357 238.059 124.624 238.347 124.944 238.56C125.264 238.773 125.632 238.88 126.048 238.88C126.485 238.88 126.869 238.784 127.2 238.592C127.541 238.4 127.808 238.139 128 237.808C128.203 237.467 128.304 237.083 128.304 236.656V229.44C128.304 229.259 128.368 229.109 128.496 228.992C128.635 228.864 128.8 228.8 128.992 228.8C129.184 228.8 129.339 228.864 129.456 228.992C129.584 229.109 129.648 229.259 129.648 229.44V236.656C129.648 237.307 129.488 237.899 129.168 238.432C128.859 238.965 128.432 239.387 127.888 239.696C127.355 240.005 126.741 240.16 126.048 240.16ZM139.047 231.648C139.228 231.648 139.378 231.712 139.495 231.84C139.623 231.957 139.687 232.107 139.687 232.288V239.344C139.687 239.525 139.623 239.68 139.495 239.808C139.378 239.936 139.228 240 139.047 240C138.855 240 138.7 239.936 138.583 239.808C138.466 239.68 138.407 239.525 138.407 239.344V237.824L138.711 237.792C138.711 238.027 138.631 238.283 138.471 238.56C138.311 238.837 138.092 239.099 137.815 239.344C137.538 239.579 137.207 239.776 136.823 239.936C136.45 240.085 136.044 240.16 135.607 240.16C134.882 240.16 134.231 239.973 133.655 239.6C133.079 239.216 132.62 238.699 132.279 238.048C131.948 237.397 131.783 236.656 131.783 235.824C131.783 234.981 131.948 234.24 132.279 233.6C132.62 232.949 133.079 232.443 133.655 232.08C134.231 231.707 134.871 231.52 135.575 231.52C136.034 231.52 136.46 231.595 136.855 231.744C137.25 231.893 137.591 232.096 137.879 232.352C138.178 232.608 138.407 232.891 138.567 233.2C138.738 233.509 138.823 233.819 138.823 234.128L138.407 234.032V232.288C138.407 232.107 138.466 231.957 138.583 231.84C138.7 231.712 138.855 231.648 139.047 231.648ZM135.751 238.976C136.284 238.976 136.754 238.837 137.159 238.56C137.575 238.283 137.895 237.909 138.119 237.44C138.354 236.96 138.471 236.421 138.471 235.824C138.471 235.237 138.354 234.709 138.119 234.24C137.895 233.76 137.575 233.387 137.159 233.12C136.754 232.843 136.284 232.704 135.751 232.704C135.228 232.704 134.759 232.837 134.343 233.104C133.938 233.371 133.618 233.739 133.383 234.208C133.148 234.677 133.031 235.216 133.031 235.824C133.031 236.421 133.143 236.96 133.367 237.44C133.602 237.909 133.922 238.283 134.327 238.56C134.743 238.837 135.218 238.976 135.751 238.976ZM146.171 231.52C146.896 231.52 147.467 231.669 147.883 231.968C148.299 232.267 148.592 232.667 148.763 233.168C148.944 233.669 149.035 234.229 149.035 234.848V239.344C149.035 239.525 148.971 239.68 148.843 239.808C148.726 239.936 148.576 240 148.395 240C148.214 240 148.059 239.936 147.931 239.808C147.814 239.68 147.755 239.525 147.755 239.344V234.88C147.755 234.475 147.691 234.112 147.563 233.792C147.446 233.461 147.243 233.2 146.955 233.008C146.678 232.805 146.294 232.704 145.803 232.704C145.355 232.704 144.944 232.805 144.571 233.008C144.198 233.2 143.899 233.461 143.675 233.792C143.451 234.112 143.339 234.475 143.339 234.88V239.344C143.339 239.525 143.275 239.68 143.147 239.808C143.03 239.936 142.88 240 142.699 240C142.518 240 142.363 239.936 142.235 239.808C142.118 239.68 142.059 239.525 142.059 239.344V232.368C142.059 232.187 142.118 232.037 142.235 231.92C142.363 231.792 142.518 231.728 142.699 231.728C142.891 231.728 143.046 231.792 143.163 231.92C143.28 232.037 143.339 232.187 143.339 232.368V233.504L143.019 233.856C143.072 233.579 143.195 233.301 143.387 233.024C143.579 232.736 143.819 232.48 144.107 232.256C144.395 232.032 144.715 231.856 145.067 231.728C145.419 231.589 145.787 231.52 146.171 231.52ZM158.417 240.064C157.99 240.064 157.553 240 157.105 239.872C156.668 239.733 156.284 239.531 155.953 239.264C155.868 239.189 155.798 239.093 155.745 238.976C155.692 238.859 155.665 238.747 155.665 238.64C155.665 238.512 155.718 238.389 155.825 238.272C155.942 238.144 156.092 238.08 156.273 238.08C156.412 238.08 156.572 238.149 156.753 238.288C156.988 238.469 157.249 238.613 157.537 238.72C157.825 238.827 158.113 238.88 158.401 238.88C158.998 238.88 159.516 238.768 159.953 238.544C160.39 238.32 160.726 238.005 160.961 237.6C161.196 237.195 161.313 236.72 161.313 236.176C161.313 235.685 161.201 235.259 160.977 234.896C160.764 234.523 160.46 234.235 160.065 234.032C159.681 233.829 159.238 233.728 158.737 233.728C158.364 233.728 158.028 233.787 157.729 233.904C157.441 234.011 157.185 234.123 156.961 234.24C156.748 234.357 156.561 234.416 156.401 234.416C156.198 234.416 156.044 234.373 155.937 234.288C155.83 234.192 155.761 234.075 155.729 233.936C155.697 233.797 155.686 233.669 155.697 233.552L156.321 229.408C156.353 229.269 156.428 229.147 156.545 229.04C156.662 228.933 156.806 228.88 156.977 228.88H161.729C161.9 228.88 162.044 228.939 162.161 229.056C162.278 229.173 162.337 229.323 162.337 229.504C162.337 229.675 162.278 229.819 162.161 229.936C162.044 230.043 161.9 230.096 161.729 230.096H157.297L157.457 229.952L156.865 233.568L156.609 233.232C156.726 233.125 156.902 233.019 157.137 232.912C157.382 232.805 157.66 232.715 157.969 232.64C158.289 232.565 158.614 232.528 158.945 232.528C159.638 232.528 160.257 232.688 160.801 233.008C161.356 233.317 161.793 233.744 162.113 234.288C162.433 234.832 162.593 235.456 162.593 236.16C162.593 236.939 162.422 237.621 162.081 238.208C161.74 238.795 161.254 239.253 160.625 239.584C160.006 239.904 159.27 240.064 158.417 240.064Z" fill="#383B4D"/>
<path d="M240.048 240.16C239.397 240.16 238.805 239.995 238.272 239.664C237.749 239.333 237.339 238.891 237.04 238.336C236.965 238.208 236.928 238.085 236.928 237.968C236.928 237.787 236.997 237.643 237.136 237.536C237.275 237.419 237.413 237.36 237.552 237.36C237.669 237.36 237.776 237.392 237.872 237.456C237.979 237.52 238.069 237.6 238.144 237.696C238.357 238.059 238.624 238.347 238.944 238.56C239.264 238.773 239.632 238.88 240.048 238.88C240.485 238.88 240.869 238.784 241.2 238.592C241.541 238.4 241.808 238.139 242 237.808C242.203 237.467 242.304 237.083 242.304 236.656V229.44C242.304 229.259 242.368 229.109 242.496 228.992C242.635 228.864 242.8 228.8 242.992 228.8C243.184 228.8 243.339 228.864 243.456 228.992C243.584 229.109 243.648 229.259 243.648 229.44V236.656C243.648 237.307 243.488 237.899 243.168 238.432C242.859 238.965 242.432 239.387 241.888 239.696C241.355 240.005 240.741 240.16 240.048 240.16ZM253.047 231.648C253.228 231.648 253.378 231.712 253.495 231.84C253.623 231.957 253.687 232.107 253.687 232.288V239.344C253.687 239.525 253.623 239.68 253.495 239.808C253.378 239.936 253.228 240 253.047 240C252.855 240 252.7 239.936 252.583 239.808C252.466 239.68 252.407 239.525 252.407 239.344V237.824L252.711 237.792C252.711 238.027 252.631 238.283 252.471 238.56C252.311 238.837 252.092 239.099 251.815 239.344C251.538 239.579 251.207 239.776 250.823 239.936C250.45 240.085 250.044 240.16 249.607 240.16C248.882 240.16 248.231 239.973 247.655 239.6C247.079 239.216 246.62 238.699 246.279 238.048C245.948 237.397 245.783 236.656 245.783 235.824C245.783 234.981 245.948 234.24 246.279 233.6C246.62 232.949 247.079 232.443 247.655 232.08C248.231 231.707 248.871 231.52 249.575 231.52C250.034 231.52 250.46 231.595 250.855 231.744C251.25 231.893 251.591 232.096 251.879 232.352C252.178 232.608 252.407 232.891 252.567 233.2C252.738 233.509 252.823 233.819 252.823 234.128L252.407 234.032V232.288C252.407 232.107 252.466 231.957 252.583 231.84C252.7 231.712 252.855 231.648 253.047 231.648ZM249.751 238.976C250.284 238.976 250.754 238.837 251.159 238.56C251.575 238.283 251.895 237.909 252.119 237.44C252.354 236.96 252.471 236.421 252.471 235.824C252.471 235.237 252.354 234.709 252.119 234.24C251.895 233.76 251.575 233.387 251.159 233.12C250.754 232.843 250.284 232.704 249.751 232.704C249.228 232.704 248.759 232.837 248.343 233.104C247.938 233.371 247.618 233.739 247.383 234.208C247.148 234.677 247.031 235.216 247.031 235.824C247.031 236.421 247.143 236.96 247.367 237.44C247.602 237.909 247.922 238.283 248.327 238.56C248.743 238.837 249.218 238.976 249.751 238.976ZM260.171 231.52C260.896 231.52 261.467 231.669 261.883 231.968C262.299 232.267 262.592 232.667 262.763 233.168C262.944 233.669 263.035 234.229 263.035 234.848V239.344C263.035 239.525 262.971 239.68 262.843 239.808C262.726 239.936 262.576 240 262.395 240C262.214 240 262.059 239.936 261.931 239.808C261.814 239.68 261.755 239.525 261.755 239.344V234.88C261.755 234.475 261.691 234.112 261.563 233.792C261.446 233.461 261.243 233.2 260.955 233.008C260.678 232.805 260.294 232.704 259.803 232.704C259.355 232.704 258.944 232.805 258.571 233.008C258.198 233.2 257.899 233.461 257.675 233.792C257.451 234.112 257.339 234.475 257.339 234.88V239.344C257.339 239.525 257.275 239.68 257.147 239.808C257.03 239.936 256.88 240 256.699 240C256.518 240 256.363 239.936 256.235 239.808C256.118 239.68 256.059 239.525 256.059 239.344V232.368C256.059 232.187 256.118 232.037 256.235 231.92C256.363 231.792 256.518 231.728 256.699 231.728C256.891 231.728 257.046 231.792 257.163 231.92C257.28 232.037 257.339 232.187 257.339 232.368V233.504L257.019 233.856C257.072 233.579 257.195 233.301 257.387 233.024C257.579 232.736 257.819 232.48 258.107 232.256C258.395 232.032 258.715 231.856 259.067 231.728C259.419 231.589 259.787 231.52 260.171 231.52ZM272.305 240C272.113 240 271.953 239.936 271.825 239.808C271.697 239.68 271.633 239.525 271.633 239.344V230.24L271.825 230.464L270.017 231.712C269.91 231.787 269.788 231.824 269.649 231.824C269.468 231.824 269.313 231.76 269.185 231.632C269.057 231.493 268.993 231.339 268.993 231.168C268.993 230.933 269.105 230.747 269.329 230.608L271.873 228.928C271.958 228.875 272.044 228.837 272.129 228.816C272.214 228.795 272.3 228.789 272.385 228.8C272.577 228.8 272.726 228.864 272.833 228.992C272.95 229.109 273.009 229.259 273.009 229.44V239.344C273.009 239.525 272.94 239.68 272.801 239.808C272.673 239.936 272.508 240 272.305 240ZM279.457 240.16C278.571 240.16 277.83 239.909 277.233 239.408C276.646 238.907 276.198 238.219 275.889 237.344C275.59 236.469 275.441 235.488 275.441 234.4C275.441 233.291 275.59 232.304 275.889 231.44C276.198 230.576 276.646 229.893 277.233 229.392C277.83 228.891 278.571 228.64 279.457 228.64C280.342 228.64 281.078 228.891 281.665 229.392C282.262 229.893 282.71 230.576 283.009 231.44C283.307 232.304 283.457 233.291 283.457 234.4C283.457 235.488 283.307 236.469 283.009 237.344C282.71 238.219 282.262 238.907 281.665 239.408C281.078 239.909 280.342 240.16 279.457 240.16ZM279.457 238.864C280.022 238.864 280.497 238.683 280.881 238.32C281.275 237.957 281.574 237.445 281.777 236.784C281.979 236.112 282.081 235.317 282.081 234.4C282.081 233.472 281.979 232.677 281.777 232.016C281.574 231.344 281.275 230.832 280.881 230.48C280.497 230.117 280.022 229.936 279.457 229.936C278.891 229.936 278.411 230.117 278.017 230.48C277.633 230.832 277.334 231.344 277.121 232.016C276.918 232.677 276.817 233.472 276.817 234.4C276.817 235.317 276.918 236.112 277.121 236.784C277.334 237.445 277.633 237.957 278.017 238.32C278.411 238.683 278.891 238.864 279.457 238.864Z" fill="#383B4D"/>
<path d="M361.048 240.16C360.397 240.16 359.805 239.995 359.272 239.664C358.749 239.333 358.339 238.891 358.04 238.336C357.965 238.208 357.928 238.085 357.928 237.968C357.928 237.787 357.997 237.643 358.136 237.536C358.275 237.419 358.413 237.36 358.552 237.36C358.669 237.36 358.776 237.392 358.872 237.456C358.979 237.52 359.069 237.6 359.144 237.696C359.357 238.059 359.624 238.347 359.944 238.56C360.264 238.773 360.632 238.88 361.048 238.88C361.485 238.88 361.869 238.784 362.2 238.592C362.541 238.4 362.808 238.139 363 237.808C363.203 237.467 363.304 237.083 363.304 236.656V229.44C363.304 229.259 363.368 229.109 363.496 228.992C363.635 228.864 363.8 228.8 363.992 228.8C364.184 228.8 364.339 228.864 364.456 228.992C364.584 229.109 364.648 229.259 364.648 229.44V236.656C364.648 237.307 364.488 237.899 364.168 238.432C363.859 238.965 363.432 239.387 362.888 239.696C362.355 240.005 361.741 240.16 361.048 240.16ZM374.047 231.648C374.228 231.648 374.378 231.712 374.495 231.84C374.623 231.957 374.687 232.107 374.687 232.288V239.344C374.687 239.525 374.623 239.68 374.495 239.808C374.378 239.936 374.228 240 374.047 240C373.855 240 373.7 239.936 373.583 239.808C373.466 239.68 373.407 239.525 373.407 239.344V237.824L373.711 237.792C373.711 238.027 373.631 238.283 373.471 238.56C373.311 238.837 373.092 239.099 372.815 239.344C372.538 239.579 372.207 239.776 371.823 239.936C371.45 240.085 371.044 240.16 370.607 240.16C369.882 240.16 369.231 239.973 368.655 239.6C368.079 239.216 367.62 238.699 367.279 238.048C366.948 237.397 366.783 236.656 366.783 235.824C366.783 234.981 366.948 234.24 367.279 233.6C367.62 232.949 368.079 232.443 368.655 232.08C369.231 231.707 369.871 231.52 370.575 231.52C371.034 231.52 371.46 231.595 371.855 231.744C372.25 231.893 372.591 232.096 372.879 232.352C373.178 232.608 373.407 232.891 373.567 233.2C373.738 233.509 373.823 233.819 373.823 234.128L373.407 234.032V232.288C373.407 232.107 373.466 231.957 373.583 231.84C373.7 231.712 373.855 231.648 374.047 231.648ZM370.751 238.976C371.284 238.976 371.754 238.837 372.159 238.56C372.575 238.283 372.895 237.909 373.119 237.44C373.354 236.96 373.471 236.421 373.471 235.824C373.471 235.237 373.354 234.709 373.119 234.24C372.895 233.76 372.575 233.387 372.159 233.12C371.754 232.843 371.284 232.704 370.751 232.704C370.228 232.704 369.759 232.837 369.343 233.104C368.938 233.371 368.618 233.739 368.383 234.208C368.148 234.677 368.031 235.216 368.031 235.824C368.031 236.421 368.143 236.96 368.367 237.44C368.602 237.909 368.922 238.283 369.327 238.56C369.743 238.837 370.218 238.976 370.751 238.976ZM381.171 231.52C381.896 231.52 382.467 231.669 382.883 231.968C383.299 232.267 383.592 232.667 383.763 233.168C383.944 233.669 384.035 234.229 384.035 234.848V239.344C384.035 239.525 383.971 239.68 383.843 239.808C383.726 239.936 383.576 240 383.395 240C383.214 240 383.059 239.936 382.931 239.808C382.814 239.68 382.755 239.525 382.755 239.344V234.88C382.755 234.475 382.691 234.112 382.563 233.792C382.446 233.461 382.243 233.2 381.955 233.008C381.678 232.805 381.294 232.704 380.803 232.704C380.355 232.704 379.944 232.805 379.571 233.008C379.198 233.2 378.899 233.461 378.675 233.792C378.451 234.112 378.339 234.475 378.339 234.88V239.344C378.339 239.525 378.275 239.68 378.147 239.808C378.03 239.936 377.88 240 377.699 240C377.518 240 377.363 239.936 377.235 239.808C377.118 239.68 377.059 239.525 377.059 239.344V232.368C377.059 232.187 377.118 232.037 377.235 231.92C377.363 231.792 377.518 231.728 377.699 231.728C377.891 231.728 378.046 231.792 378.163 231.92C378.28 232.037 378.339 232.187 378.339 232.368V233.504L378.019 233.856C378.072 233.579 378.195 233.301 378.387 233.024C378.579 232.736 378.819 232.48 379.107 232.256C379.395 232.032 379.715 231.856 380.067 231.728C380.419 231.589 380.787 231.52 381.171 231.52ZM393.305 240C393.113 240 392.953 239.936 392.825 239.808C392.697 239.68 392.633 239.525 392.633 239.344V230.24L392.825 230.464L391.017 231.712C390.91 231.787 390.788 231.824 390.649 231.824C390.468 231.824 390.313 231.76 390.185 231.632C390.057 231.493 389.993 231.339 389.993 231.168C389.993 230.933 390.105 230.747 390.329 230.608L392.873 228.928C392.958 228.875 393.044 228.837 393.129 228.816C393.214 228.795 393.3 228.789 393.385 228.8C393.577 228.8 393.726 228.864 393.833 228.992C393.95 229.109 394.009 229.259 394.009 229.44V239.344C394.009 239.525 393.94 239.68 393.801 239.808C393.673 239.936 393.508 240 393.305 240ZM399.433 240.064C399.006 240.064 398.569 240 398.121 239.872C397.683 239.733 397.299 239.531 396.969 239.264C396.883 239.189 396.814 239.093 396.761 238.976C396.707 238.859 396.681 238.747 396.681 238.64C396.681 238.512 396.734 238.389 396.841 238.272C396.958 238.144 397.107 238.08 397.289 238.08C397.427 238.08 397.587 238.149 397.769 238.288C398.003 238.469 398.265 238.613 398.553 238.72C398.841 238.827 399.129 238.88 399.417 238.88C400.014 238.88 400.531 238.768 400.969 238.544C401.406 238.32 401.742 238.005 401.977 237.6C402.211 237.195 402.329 236.72 402.329 236.176C402.329 235.685 402.217 235.259 401.993 234.896C401.779 234.523 401.475 234.235 401.081 234.032C400.697 233.829 400.254 233.728 399.753 233.728C399.379 233.728 399.043 233.787 398.745 233.904C398.457 234.011 398.201 234.123 397.977 234.24C397.763 234.357 397.577 234.416 397.417 234.416C397.214 234.416 397.059 234.373 396.953 234.288C396.846 234.192 396.777 234.075 396.745 233.936C396.713 233.797 396.702 233.669 396.713 233.552L397.337 229.408C397.369 229.269 397.443 229.147 397.561 229.04C397.678 228.933 397.822 228.88 397.993 228.88H402.745C402.915 228.88 403.059 228.939 403.177 229.056C403.294 229.173 403.353 229.323 403.353 229.504C403.353 229.675 403.294 229.819 403.177 229.936C403.059 230.043 402.915 230.096 402.745 230.096H398.313L398.473 229.952L397.881 233.568L397.625 233.232C397.742 233.125 397.918 233.019 398.153 232.912C398.398 232.805 398.675 232.715 398.985 232.64C399.305 232.565 399.63 232.528 399.961 232.528C400.654 232.528 401.273 232.688 401.817 233.008C402.371 233.317 402.809 233.744 403.129 234.288C403.449 234.832 403.609 235.456 403.609 236.16C403.609 236.939 403.438 237.621 403.097 238.208C402.755 238.795 402.27 239.253 401.641 239.584C401.022 239.904 400.286 240.064 399.433 240.064Z" fill="#383B4D"/>
<path d="M481.048 240.16C480.397 240.16 479.805 239.995 479.272 239.664C478.749 239.333 478.339 238.891 478.04 238.336C477.965 238.208 477.928 238.085 477.928 237.968C477.928 237.787 477.997 237.643 478.136 237.536C478.275 237.419 478.413 237.36 478.552 237.36C478.669 237.36 478.776 237.392 478.872 237.456C478.979 237.52 479.069 237.6 479.144 237.696C479.357 238.059 479.624 238.347 479.944 238.56C480.264 238.773 480.632 238.88 481.048 238.88C481.485 238.88 481.869 238.784 482.2 238.592C482.541 238.4 482.808 238.139 483 237.808C483.203 237.467 483.304 237.083 483.304 236.656V229.44C483.304 229.259 483.368 229.109 483.496 228.992C483.635 228.864 483.8 228.8 483.992 228.8C484.184 228.8 484.339 228.864 484.456 228.992C484.584 229.109 484.648 229.259 484.648 229.44V236.656C484.648 237.307 484.488 237.899 484.168 238.432C483.859 238.965 483.432 239.387 482.888 239.696C482.355 240.005 481.741 240.16 481.048 240.16ZM494.047 231.648C494.228 231.648 494.378 231.712 494.495 231.84C494.623 231.957 494.687 232.107 494.687 232.288V239.344C494.687 239.525 494.623 239.68 494.495 239.808C494.378 239.936 494.228 240 494.047 240C493.855 240 493.7 239.936 493.583 239.808C493.466 239.68 493.407 239.525 493.407 239.344V237.824L493.711 237.792C493.711 238.027 493.631 238.283 493.471 238.56C493.311 238.837 493.092 239.099 492.815 239.344C492.538 239.579 492.207 239.776 491.823 239.936C491.45 240.085 491.044 240.16 490.607 240.16C489.882 240.16 489.231 239.973 488.655 239.6C488.079 239.216 487.62 238.699 487.279 238.048C486.948 237.397 486.783 236.656 486.783 235.824C486.783 234.981 486.948 234.24 487.279 233.6C487.62 232.949 488.079 232.443 488.655 232.08C489.231 231.707 489.871 231.52 490.575 231.52C491.034 231.52 491.46 231.595 491.855 231.744C492.25 231.893 492.591 232.096 492.879 232.352C493.178 232.608 493.407 232.891 493.567 233.2C493.738 233.509 493.823 233.819 493.823 234.128L493.407 234.032V232.288C493.407 232.107 493.466 231.957 493.583 231.84C493.7 231.712 493.855 231.648 494.047 231.648ZM490.751 238.976C491.284 238.976 491.754 238.837 492.159 238.56C492.575 238.283 492.895 237.909 493.119 237.44C493.354 236.96 493.471 236.421 493.471 235.824C493.471 235.237 493.354 234.709 493.119 234.24C492.895 233.76 492.575 233.387 492.159 233.12C491.754 232.843 491.284 232.704 490.751 232.704C490.228 232.704 489.759 232.837 489.343 233.104C488.938 233.371 488.618 233.739 488.383 234.208C488.148 234.677 488.031 235.216 488.031 235.824C488.031 236.421 488.143 236.96 488.367 237.44C488.602 237.909 488.922 238.283 489.327 238.56C489.743 238.837 490.218 238.976 490.751 238.976ZM501.171 231.52C501.896 231.52 502.467 231.669 502.883 231.968C503.299 232.267 503.592 232.667 503.763 233.168C503.944 233.669 504.035 234.229 504.035 234.848V239.344C504.035 239.525 503.971 239.68 503.843 239.808C503.726 239.936 503.576 240 503.395 240C503.214 240 503.059 239.936 502.931 239.808C502.814 239.68 502.755 239.525 502.755 239.344V234.88C502.755 234.475 502.691 234.112 502.563 233.792C502.446 233.461 502.243 233.2 501.955 233.008C501.678 232.805 501.294 232.704 500.803 232.704C500.355 232.704 499.944 232.805 499.571 233.008C499.198 233.2 498.899 233.461 498.675 233.792C498.451 234.112 498.339 234.475 498.339 234.88V239.344C498.339 239.525 498.275 239.68 498.147 239.808C498.03 239.936 497.88 240 497.699 240C497.518 240 497.363 239.936 497.235 239.808C497.118 239.68 497.059 239.525 497.059 239.344V232.368C497.059 232.187 497.118 232.037 497.235 231.92C497.363 231.792 497.518 231.728 497.699 231.728C497.891 231.728 498.046 231.792 498.163 231.92C498.28 232.037 498.339 232.187 498.339 232.368V233.504L498.019 233.856C498.072 233.579 498.195 233.301 498.387 233.024C498.579 232.736 498.819 232.48 499.107 232.256C499.395 232.032 499.715 231.856 500.067 231.728C500.419 231.589 500.787 231.52 501.171 231.52ZM517.129 238.8C517.3 238.8 517.444 238.859 517.561 238.976C517.678 239.093 517.737 239.237 517.737 239.408C517.737 239.579 517.678 239.723 517.561 239.84C517.444 239.947 517.3 240 517.129 240H511.321C511.129 240 510.969 239.947 510.841 239.84C510.724 239.723 510.665 239.568 510.665 239.376C510.665 239.205 510.729 239.051 510.857 238.912L514.473 234.96C515.006 234.384 515.406 233.845 515.673 233.344C515.95 232.832 516.089 232.379 516.089 231.984C516.089 231.333 515.892 230.816 515.497 230.432C515.113 230.037 514.596 229.84 513.945 229.84C513.657 229.84 513.369 229.904 513.081 230.032C512.793 230.149 512.532 230.315 512.297 230.528C512.062 230.731 511.87 230.96 511.721 231.216C511.636 231.355 511.545 231.445 511.449 231.488C511.364 231.52 511.273 231.536 511.177 231.536C511.017 231.536 510.873 231.483 510.745 231.376C510.617 231.259 510.553 231.125 510.553 230.976C510.553 230.859 510.585 230.752 510.649 230.656C510.713 230.549 510.798 230.432 510.905 230.304C511.129 229.995 511.406 229.717 511.737 229.472C512.078 229.216 512.446 229.013 512.841 228.864C513.246 228.715 513.641 228.64 514.025 228.64C514.708 228.64 515.3 228.773 515.801 229.04C516.313 229.307 516.708 229.685 516.985 230.176C517.262 230.667 517.401 231.243 517.401 231.904C517.401 232.469 517.23 233.093 516.889 233.776C516.548 234.459 516.046 235.152 515.385 235.856L512.585 238.96L512.425 238.8H517.129ZM522.355 240.064C521.928 240.064 521.491 240 521.043 239.872C520.605 239.733 520.221 239.531 519.891 239.264C519.805 239.189 519.736 239.093 519.683 238.976C519.629 238.859 519.603 238.747 519.603 238.64C519.603 238.512 519.656 238.389 519.763 238.272C519.88 238.144 520.029 238.08 520.211 238.08C520.349 238.08 520.509 238.149 520.691 238.288C520.925 238.469 521.187 238.613 521.475 238.72C521.763 238.827 522.051 238.88 522.339 238.88C522.936 238.88 523.453 238.768 523.891 238.544C524.328 238.32 524.664 238.005 524.899 237.6C525.133 237.195 525.251 236.72 525.251 236.176C525.251 235.685 525.139 235.259 524.915 234.896C524.701 234.523 524.397 234.235 524.003 234.032C523.619 233.829 523.176 233.728 522.674 233.728C522.301 233.728 521.965 233.787 521.667 233.904C521.379 234.011 521.123 234.123 520.899 234.24C520.685 234.357 520.499 234.416 520.339 234.416C520.136 234.416 519.981 234.373 519.875 234.288C519.768 234.192 519.699 234.075 519.667 233.936C519.635 233.797 519.624 233.669 519.635 233.552L520.259 229.408C520.291 229.269 520.365 229.147 520.483 229.04C520.6 228.933 520.744 228.88 520.914 228.88H525.667C525.837 228.88 525.981 228.939 526.099 229.056C526.216 229.173 526.275 229.323 526.275 229.504C526.275 229.675 526.216 229.819 526.099 229.936C525.981 230.043 525.837 230.096 525.667 230.096H521.235L521.395 229.952L520.803 233.568L520.547 233.232C520.664 233.125 520.84 233.019 521.075 232.912C521.32 232.805 521.597 232.715 521.907 232.64C522.227 232.565 522.552 232.528 522.883 232.528C523.576 232.528 524.195 232.688 524.739 233.008C525.293 233.317 525.731 233.744 526.051 234.288C526.371 234.832 526.531 235.456 526.531 236.16C526.531 236.939 526.36 237.621 526.019 238.208C525.677 238.795 525.192 239.253 524.563 239.584C523.944 239.904 523.208 240.064 522.355 240.064Z" fill="#383B4D"/>
<path d="M604.048 240.16C603.397 240.16 602.805 239.995 602.272 239.664C601.749 239.333 601.339 238.891 601.04 238.336C600.965 238.208 600.928 238.085 600.928 237.968C600.928 237.787 600.997 237.643 601.136 237.536C601.275 237.419 601.413 237.36 601.552 237.36C601.669 237.36 601.776 237.392 601.872 237.456C601.979 237.52 602.069 237.6 602.144 237.696C602.357 238.059 602.624 238.347 602.944 238.56C603.264 238.773 603.632 238.88 604.048 238.88C604.485 238.88 604.869 238.784 605.2 238.592C605.541 238.4 605.808 238.139 606 237.808C606.203 237.467 606.304 237.083 606.304 236.656V229.44C606.304 229.259 606.368 229.109 606.496 228.992C606.635 228.864 606.8 228.8 606.992 228.8C607.184 228.8 607.339 228.864 607.456 228.992C607.584 229.109 607.648 229.259 607.648 229.44V236.656C607.648 237.307 607.488 237.899 607.168 238.432C606.859 238.965 606.432 239.387 605.888 239.696C605.355 240.005 604.741 240.16 604.048 240.16ZM617.047 231.648C617.228 231.648 617.378 231.712 617.495 231.84C617.623 231.957 617.687 232.107 617.687 232.288V239.344C617.687 239.525 617.623 239.68 617.495 239.808C617.378 239.936 617.228 240 617.047 240C616.855 240 616.7 239.936 616.583 239.808C616.466 239.68 616.407 239.525 616.407 239.344V237.824L616.711 237.792C616.711 238.027 616.631 238.283 616.471 238.56C616.311 238.837 616.092 239.099 615.815 239.344C615.538 239.579 615.207 239.776 614.823 239.936C614.45 240.085 614.044 240.16 613.607 240.16C612.882 240.16 612.231 239.973 611.655 239.6C611.079 239.216 610.62 238.699 610.279 238.048C609.948 237.397 609.783 236.656 609.783 235.824C609.783 234.981 609.948 234.24 610.279 233.6C610.62 232.949 611.079 232.443 611.655 232.08C612.231 231.707 612.871 231.52 613.575 231.52C614.034 231.52 614.46 231.595 614.855 231.744C615.25 231.893 615.591 232.096 615.879 232.352C616.178 232.608 616.407 232.891 616.567 233.2C616.738 233.509 616.823 233.819 616.823 234.128L616.407 234.032V232.288C616.407 232.107 616.466 231.957 616.583 231.84C616.7 231.712 616.855 231.648 617.047 231.648ZM613.751 238.976C614.284 238.976 614.754 238.837 615.159 238.56C615.575 238.283 615.895 237.909 616.119 237.44C616.354 236.96 616.471 236.421 616.471 235.824C616.471 235.237 616.354 234.709 616.119 234.24C615.895 233.76 615.575 233.387 615.159 233.12C614.754 232.843 614.284 232.704 613.751 232.704C613.228 232.704 612.759 232.837 612.343 233.104C611.938 233.371 611.618 233.739 611.383 234.208C611.148 234.677 611.031 235.216 611.031 235.824C611.031 236.421 611.143 236.96 611.367 237.44C611.602 237.909 611.922 238.283 612.327 238.56C612.743 238.837 613.218 238.976 613.751 238.976ZM624.171 231.52C624.896 231.52 625.467 231.669 625.883 231.968C626.299 232.267 626.592 232.667 626.763 233.168C626.944 233.669 627.035 234.229 627.035 234.848V239.344C627.035 239.525 626.971 239.68 626.843 239.808C626.726 239.936 626.576 240 626.395 240C626.214 240 626.059 239.936 625.931 239.808C625.814 239.68 625.755 239.525 625.755 239.344V234.88C625.755 234.475 625.691 234.112 625.563 233.792C625.446 233.461 625.243 233.2 624.955 233.008C624.678 232.805 624.294 232.704 623.803 232.704C623.355 232.704 622.944 232.805 622.571 233.008C622.198 233.2 621.899 233.461 621.675 233.792C621.451 234.112 621.339 234.475 621.339 234.88V239.344C621.339 239.525 621.275 239.68 621.147 239.808C621.03 239.936 620.88 240 620.699 240C620.518 240 620.363 239.936 620.235 239.808C620.118 239.68 620.059 239.525 620.059 239.344V232.368C620.059 232.187 620.118 232.037 620.235 231.92C620.363 231.792 620.518 231.728 620.699 231.728C620.891 231.728 621.046 231.792 621.163 231.92C621.28 232.037 621.339 232.187 621.339 232.368V233.504L621.019 233.856C621.072 233.579 621.195 233.301 621.387 233.024C621.579 232.736 621.819 232.48 622.107 232.256C622.395 232.032 622.715 231.856 623.067 231.728C623.419 231.589 623.787 231.52 624.171 231.52ZM634.177 238.144C634.241 238.144 634.31 238.16 634.385 238.192C634.47 238.213 634.561 238.267 634.657 238.352C634.87 238.544 635.121 238.699 635.409 238.816C635.697 238.933 636.028 238.992 636.401 238.992C636.86 238.992 637.281 238.891 637.665 238.688C638.049 238.475 638.358 238.176 638.593 237.792C638.838 237.408 638.961 236.965 638.961 236.464C638.961 235.92 638.838 235.477 638.593 235.136C638.358 234.784 638.054 234.528 637.681 234.368C637.318 234.197 636.934 234.112 636.529 234.112C636.38 234.112 636.241 234.123 636.113 234.144C635.985 234.165 635.862 234.192 635.745 234.224C635.638 234.256 635.537 234.272 635.441 234.272C635.27 234.272 635.137 234.213 635.041 234.096C634.945 233.979 634.897 233.835 634.897 233.664C634.897 233.568 634.913 233.483 634.945 233.408C634.988 233.323 635.052 233.232 635.137 233.136L638.241 229.776L638.497 230.08H633.953C633.782 230.08 633.638 230.021 633.521 229.904C633.404 229.787 633.345 229.643 633.345 229.472C633.345 229.301 633.404 229.163 633.521 229.056C633.638 228.939 633.782 228.88 633.953 228.88H639.169C639.404 228.88 639.574 228.949 639.681 229.088C639.788 229.216 639.841 229.36 639.841 229.52C639.841 229.616 639.814 229.707 639.761 229.792C639.718 229.877 639.66 229.957 639.585 230.032L636.481 233.408L636.113 233.088C636.166 233.045 636.289 233.008 636.481 232.976C636.673 232.933 636.833 232.912 636.961 232.912C637.558 232.912 638.108 233.056 638.609 233.344C639.11 233.632 639.51 234.037 639.809 234.56C640.108 235.083 640.257 235.691 640.257 236.384C640.257 237.152 640.081 237.819 639.729 238.384C639.377 238.949 638.892 239.387 638.273 239.696C637.665 240.005 636.977 240.16 636.209 240.16C635.782 240.16 635.361 240.096 634.945 239.968C634.54 239.829 634.188 239.632 633.889 239.376C633.75 239.301 633.654 239.216 633.601 239.12C633.558 239.024 633.537 238.928 633.537 238.832C633.537 238.672 633.596 238.517 633.713 238.368C633.841 238.219 633.996 238.144 634.177 238.144ZM645.894 240.16C645.009 240.16 644.267 239.909 643.67 239.408C643.083 238.907 642.635 238.219 642.326 237.344C642.027 236.469 641.878 235.488 641.878 234.4C641.878 233.291 642.027 232.304 642.326 231.44C642.635 230.576 643.083 229.893 643.67 229.392C644.267 228.891 645.009 228.64 645.894 228.64C646.779 228.64 647.515 228.891 648.102 229.392C648.699 229.893 649.147 230.576 649.446 231.44C649.745 232.304 649.894 233.291 649.894 234.4C649.894 235.488 649.745 236.469 649.446 237.344C649.147 238.219 648.699 238.907 648.102 239.408C647.515 239.909 646.779 240.16 645.894 240.16ZM645.894 238.864C646.459 238.864 646.934 238.683 647.318 238.32C647.713 237.957 648.011 237.445 648.214 236.784C648.417 236.112 648.518 235.317 648.518 234.4C648.518 233.472 648.417 232.677 648.214 232.016C648.011 231.344 647.713 230.832 647.318 230.48C646.934 230.117 646.459 229.936 645.894 229.936C645.329 229.936 644.849 230.117 644.454 230.48C644.07 230.832 643.771 231.344 643.558 232.016C643.355 232.677 643.254 233.472 643.254 234.4C643.254 235.317 643.355 236.112 643.558 236.784C643.771 237.445 644.07 237.957 644.454 238.32C644.849 238.683 645.329 238.864 645.894 238.864Z" fill="#383B4D"/>
<path d="M0 26C0 23.7909 1.79086 22 4 22H20C22.2091 22 24 23.7909 24 26V198H0V26Z" fill="#A3B1F5"/>
<path d="M36 82C36 79.7909 37.7909 78 40 78H56C58.2091 78 60 79.7909 60 82V198H36V82Z" fill="#B1A3F5"/>
<path d="M113 4C113 1.79087 114.791 0 117 0H133C135.209 0 137 1.79086 137 4V198H113V4Z" fill="#4763EB"/>
<path d="M149 123C149 120.791 150.791 119 153 119H169C171.209 119 173 120.791 173 123V198H149V123Z" fill="#B1A3F5"/>
<path d="M230 88C230 85.7909 231.791 84 234 84H250C252.209 84 254 85.7909 254 88V198H230V88Z" fill="#A3B1F5"/>
<path d="M266 65C266 62.7909 267.791 61 270 61H286C288.209 61 290 62.7909 290 65V198H266V65Z" fill="#B1A3F5"/>
<path d="M351 26C351 23.7909 352.791 22 355 22H371C373.209 22 375 23.7909 375 26V198H351V26Z" fill="#A3B1F5"/>
<path d="M387 56C387 53.7909 388.791 52 391 52H407C409.209 52 411 53.7909 411 56V198H387V56Z" fill="#B1A3F5"/>
<path d="M472 65C472 62.7909 473.791 61 476 61H492C494.209 61 496 62.7909 496 65V198H472V65Z" fill="#A3B1F5"/>
<path d="M508 26C508 23.7909 509.791 22 512 22H528C530.209 22 532 23.7909 532 26V198H508V26Z" fill="#B1A3F5"/>
<path d="M596 76C596 73.7909 597.791 72 600 72H616C618.209 72 620 73.7909 620 76V198H596V76Z" fill="#A3B1F5"/>
<path d="M632 140C632 137.791 633.791 136 636 136H652C654.209 136 656 137.791 656 140V198H632V140Z" fill="#B1A3F5"/>
</svg>
