<svg width="738" height="228" viewBox="0 0 738 228" fill="none" xmlns="http://www.w3.org/2000/svg">
<path d="M3.68 16C3.488 16 3.328 15.936 3.2 15.808C3.072 15.68 3.008 15.5253 3.008 15.344V6.24L3.2 6.464L1.392 7.712C1.28533 7.78667 1.16267 7.824 1.024 7.824C0.842667 7.824 0.688 7.76 0.56 7.632C0.432 7.49333 0.368 7.33867 0.368 7.168C0.368 6.93333 0.48 6.74667 0.704 6.608L3.248 4.928C3.33333 4.87467 3.41867 4.83733 3.504 4.816C3.58933 4.79467 3.67467 4.78933 3.76 4.8C3.952 4.8 4.10133 4.864 4.208 4.992C4.32533 5.10933 4.384 5.25867 4.384 5.44V15.344C4.384 15.5253 4.31467 15.68 4.176 15.808C4.048 15.936 3.88267 16 3.68 16ZM10.8316 16.16C9.94629 16.16 9.20496 15.9093 8.60763 15.408C8.02096 14.9067 7.57296 14.2187 7.26363 13.344C6.96496 12.4693 6.81563 11.488 6.81563 10.4C6.81563 9.29067 6.96496 8.304 7.26363 7.44C7.57296 6.576 8.02096 5.89333 8.60763 5.392C9.20496 4.89067 9.94629 4.64 10.8316 4.64C11.717 4.64 12.453 4.89067 13.0396 5.392C13.637 5.89333 14.085 6.576 14.3836 7.44C14.6823 8.304 14.8316 9.29067 14.8316 10.4C14.8316 11.488 14.6823 12.4693 14.3836 13.344C14.085 14.2187 13.637 14.9067 13.0396 15.408C12.453 15.9093 11.717 16.16 10.8316 16.16ZM10.8316 14.864C11.397 14.864 11.8716 14.6827 12.2556 14.32C12.6503 13.9573 12.949 13.4453 13.1516 12.784C13.3543 12.112 13.4556 11.3173 13.4556 10.4C13.4556 9.472 13.3543 8.67733 13.1516 8.016C12.949 7.344 12.6503 6.832 12.2556 6.48C11.8716 6.11733 11.397 5.936 10.8316 5.936C10.2663 5.936 9.78629 6.11733 9.39163 6.48C9.00763 6.832 8.70896 7.344 8.49563 8.016C8.29296 8.67733 8.19163 9.472 8.19163 10.4C8.19163 11.3173 8.29296 12.112 8.49563 12.784C8.70896 13.4453 9.00763 13.9573 9.39163 14.32C9.78629 14.6827 10.2663 14.864 10.8316 14.864ZM20.441 16.16C19.5557 16.16 18.8143 15.9093 18.217 15.408C17.6303 14.9067 17.1823 14.2187 16.873 13.344C16.5743 12.4693 16.425 11.488 16.425 10.4C16.425 9.29067 16.5743 8.304 16.873 7.44C17.1823 6.576 17.6303 5.89333 18.217 5.392C18.8143 4.89067 19.5557 4.64 20.441 4.64C21.3263 4.64 22.0623 4.89067 22.649 5.392C23.2463 5.89333 23.6943 6.576 23.993 7.44C24.2917 8.304 24.441 9.29067 24.441 10.4C24.441 11.488 24.2917 12.4693 23.993 13.344C23.6943 14.2187 23.2463 14.9067 22.649 15.408C22.0623 15.9093 21.3263 16.16 20.441 16.16ZM20.441 14.864C21.0063 14.864 21.481 14.6827 21.865 14.32C22.2597 13.9573 22.5583 13.4453 22.761 12.784C22.9637 12.112 23.065 11.3173 23.065 10.4C23.065 9.472 22.9637 8.67733 22.761 8.016C22.5583 7.344 22.2597 6.832 21.865 6.48C21.481 6.11733 21.0063 5.936 20.441 5.936C19.8757 5.936 19.3957 6.11733 19.001 6.48C18.617 6.832 18.3183 7.344 18.105 8.016C17.9023 8.67733 17.801 9.472 17.801 10.4C17.801 11.3173 17.9023 12.112 18.105 12.784C18.3183 13.4453 18.617 13.9573 19.001 14.32C19.3957 14.6827 19.8757 14.864 20.441 14.864Z" fill="#383B4D"/>
<rect x="50" y="9.5" width="688" height="1" fill="#383B4D" fill-opacity="0.24"/>
<path d="M2.96 68.048C2.78933 68.048 2.63467 67.9947 2.496 67.888C2.368 67.7707 2.304 67.6213 2.304 67.44C2.304 67.344 2.32533 67.248 2.368 67.152L6.496 57.792L6.688 58.08H1.536C1.36533 58.08 1.22133 58.0267 1.104 57.92C0.986667 57.8027 0.928 57.6533 0.928 57.472C0.928 57.3013 0.986667 57.1627 1.104 57.056C1.22133 56.9387 1.36533 56.88 1.536 56.88H7.312C7.504 56.88 7.65867 56.9387 7.776 57.056C7.904 57.1733 7.968 57.3227 7.968 57.504C7.968 57.6 7.94667 57.696 7.904 57.792L3.568 67.648C3.51467 67.776 3.42933 67.8773 3.312 67.952C3.20533 68.016 3.088 68.048 2.96 68.048ZM12.1983 68.064C11.7716 68.064 11.3343 68 10.8863 67.872C10.4489 67.7333 10.0649 67.5307 9.73425 67.264C9.64892 67.1893 9.57958 67.0933 9.52625 66.976C9.47292 66.8587 9.44625 66.7467 9.44625 66.64C9.44625 66.512 9.49958 66.3893 9.60625 66.272C9.72358 66.144 9.87292 66.08 10.0543 66.08C10.1929 66.08 10.3529 66.1493 10.5343 66.288C10.7689 66.4693 11.0303 66.6133 11.3183 66.72C11.6063 66.8267 11.8943 66.88 12.1823 66.88C12.7796 66.88 13.2969 66.768 13.7343 66.544C14.1716 66.32 14.5076 66.0053 14.7423 65.6C14.9769 65.1947 15.0943 64.72 15.0943 64.176C15.0943 63.6853 14.9823 63.2587 14.7583 62.896C14.5449 62.5227 14.2409 62.2347 13.8463 62.032C13.4623 61.8293 13.0196 61.728 12.5182 61.728C12.1449 61.728 11.8089 61.7867 11.5103 61.904C11.2223 62.0107 10.9663 62.1227 10.7423 62.24C10.5289 62.3573 10.3423 62.416 10.1823 62.416C9.97958 62.416 9.82492 62.3733 9.71825 62.288C9.61158 62.192 9.54225 62.0747 9.51025 61.936C9.47825 61.7973 9.46758 61.6693 9.47825 61.552L10.1023 57.408C10.1343 57.2693 10.2089 57.1467 10.3263 57.04C10.4436 56.9333 10.5876 56.88 10.7582 56.88H15.5103C15.6809 56.88 15.8249 56.9387 15.9423 57.056C16.0596 57.1733 16.1183 57.3227 16.1183 57.504C16.1183 57.6747 16.0596 57.8187 15.9423 57.936C15.8249 58.0427 15.6809 58.096 15.5103 58.096H11.0783L11.2383 57.952L10.6463 61.568L10.3903 61.232C10.5076 61.1253 10.6836 61.0187 10.9183 60.912C11.1636 60.8053 11.4409 60.7147 11.7503 60.64C12.0703 60.5653 12.3956 60.528 12.7263 60.528C13.4196 60.528 14.0383 60.688 14.5823 61.008C15.1369 61.3173 15.5743 61.744 15.8943 62.288C16.2143 62.832 16.3743 63.456 16.3743 64.16C16.3743 64.9387 16.2036 65.6213 15.8623 66.208C15.5209 66.7947 15.0356 67.2533 14.4063 67.584C13.7876 67.904 13.0516 68.064 12.1983 68.064Z" fill="#383B4D"/>
<rect x="50" y="61.5" width="688" height="1" fill="#383B4D" fill-opacity="0.24"/>
<path d="M3.792 120.064C3.36533 120.064 2.928 120 2.48 119.872C2.04267 119.733 1.65867 119.531 1.328 119.264C1.24267 119.189 1.17333 119.093 1.12 118.976C1.06667 118.859 1.04 118.747 1.04 118.64C1.04 118.512 1.09333 118.389 1.2 118.272C1.31733 118.144 1.46667 118.08 1.648 118.08C1.78667 118.08 1.94667 118.149 2.128 118.288C2.36267 118.469 2.624 118.613 2.912 118.72C3.2 118.827 3.488 118.88 3.776 118.88C4.37333 118.88 4.89067 118.768 5.328 118.544C5.76533 118.32 6.10133 118.005 6.336 117.6C6.57067 117.195 6.688 116.72 6.688 116.176C6.688 115.685 6.576 115.259 6.352 114.896C6.13867 114.523 5.83467 114.235 5.44 114.032C5.056 113.829 4.61333 113.728 4.112 113.728C3.73867 113.728 3.40267 113.787 3.104 113.904C2.816 114.011 2.56 114.123 2.336 114.24C2.12267 114.357 1.936 114.416 1.776 114.416C1.57333 114.416 1.41867 114.373 1.312 114.288C1.20533 114.192 1.136 114.075 1.104 113.936C1.072 113.797 1.06133 113.669 1.072 113.552L1.696 109.408C1.728 109.269 1.80267 109.147 1.92 109.04C2.03733 108.933 2.18133 108.88 2.352 108.88H7.104C7.27467 108.88 7.41867 108.939 7.536 109.056C7.65333 109.173 7.712 109.323 7.712 109.504C7.712 109.675 7.65333 109.819 7.536 109.936C7.41867 110.043 7.27467 110.096 7.104 110.096H2.672L2.832 109.952L2.24 113.568L1.984 113.232C2.10133 113.125 2.27733 113.019 2.512 112.912C2.75733 112.805 3.03467 112.715 3.344 112.64C3.664 112.565 3.98933 112.528 4.32 112.528C5.01333 112.528 5.632 112.688 6.176 113.008C6.73067 113.317 7.168 113.744 7.488 114.288C7.808 114.832 7.968 115.456 7.968 116.16C7.968 116.939 7.79733 117.621 7.456 118.208C7.11467 118.795 6.62933 119.253 6 119.584C5.38133 119.904 4.64533 120.064 3.792 120.064ZM13.7066 120.16C12.8213 120.16 12.08 119.909 11.4826 119.408C10.896 118.907 10.448 118.219 10.1386 117.344C9.83996 116.469 9.69063 115.488 9.69063 114.4C9.69063 113.291 9.83996 112.304 10.1386 111.44C10.448 110.576 10.896 109.893 11.4826 109.392C12.08 108.891 12.8213 108.64 13.7066 108.64C14.592 108.64 15.328 108.891 15.9146 109.392C16.512 109.893 16.96 110.576 17.2586 111.44C17.5573 112.304 17.7066 113.291 17.7066 114.4C17.7066 115.488 17.5573 116.469 17.2586 117.344C16.96 118.219 16.512 118.907 15.9146 119.408C15.328 119.909 14.592 120.16 13.7066 120.16ZM13.7066 118.864C14.272 118.864 14.7466 118.683 15.1306 118.32C15.5253 117.957 15.824 117.445 16.0266 116.784C16.2293 116.112 16.3306 115.317 16.3306 114.4C16.3306 113.472 16.2293 112.677 16.0266 112.016C15.824 111.344 15.5253 110.832 15.1306 110.48C14.7466 110.117 14.272 109.936 13.7066 109.936C13.1413 109.936 12.6613 110.117 12.2666 110.48C11.8826 110.832 11.584 111.344 11.3706 112.016C11.168 112.677 11.0666 113.472 11.0666 114.4C11.0666 115.317 11.168 116.112 11.3706 116.784C11.584 117.445 11.8826 117.957 12.2666 118.32C12.6613 118.683 13.1413 118.864 13.7066 118.864Z" fill="#383B4D"/>
<rect x="50" y="113.5" width="688" height="1" fill="#383B4D" fill-opacity="0.24"/>
<path d="M7.504 170.8C7.67467 170.8 7.81867 170.859 7.936 170.976C8.05333 171.093 8.112 171.237 8.112 171.408C8.112 171.579 8.05333 171.723 7.936 171.84C7.81867 171.947 7.67467 172 7.504 172H1.696C1.504 172 1.344 171.947 1.216 171.84C1.09867 171.723 1.04 171.568 1.04 171.376C1.04 171.205 1.104 171.051 1.232 170.912L4.848 166.96C5.38133 166.384 5.78133 165.845 6.048 165.344C6.32533 164.832 6.464 164.379 6.464 163.984C6.464 163.333 6.26667 162.816 5.872 162.432C5.488 162.037 4.97067 161.84 4.32 161.84C4.032 161.84 3.744 161.904 3.456 162.032C3.168 162.149 2.90667 162.315 2.672 162.528C2.43733 162.731 2.24533 162.96 2.096 163.216C2.01067 163.355 1.92 163.445 1.824 163.488C1.73867 163.52 1.648 163.536 1.552 163.536C1.392 163.536 1.248 163.483 1.12 163.376C0.992 163.259 0.928 163.125 0.928 162.976C0.928 162.859 0.96 162.752 1.024 162.656C1.088 162.549 1.17333 162.432 1.28 162.304C1.504 161.995 1.78133 161.717 2.112 161.472C2.45333 161.216 2.82133 161.013 3.216 160.864C3.62133 160.715 4.016 160.64 4.4 160.64C5.08267 160.64 5.67467 160.773 6.176 161.04C6.688 161.307 7.08267 161.685 7.36 162.176C7.63733 162.667 7.776 163.243 7.776 163.904C7.776 164.469 7.60533 165.093 7.264 165.776C6.92267 166.459 6.42133 167.152 5.76 167.856L2.96 170.96L2.8 170.8H7.504ZM12.7295 172.064C12.3028 172.064 11.8655 172 11.4175 171.872C10.9802 171.733 10.5962 171.531 10.2655 171.264C10.1802 171.189 10.1108 171.093 10.0575 170.976C10.0042 170.859 9.9775 170.747 9.9775 170.64C9.9775 170.512 10.0308 170.389 10.1375 170.272C10.2548 170.144 10.4042 170.08 10.5855 170.08C10.7242 170.08 10.8842 170.149 11.0655 170.288C11.3002 170.469 11.5615 170.613 11.8495 170.72C12.1375 170.827 12.4255 170.88 12.7135 170.88C13.3108 170.88 13.8282 170.768 14.2655 170.544C14.7028 170.32 15.0388 170.005 15.2735 169.6C15.5082 169.195 15.6255 168.72 15.6255 168.176C15.6255 167.685 15.5135 167.259 15.2895 166.896C15.0762 166.523 14.7722 166.235 14.3775 166.032C13.9935 165.829 13.5508 165.728 13.0495 165.728C12.6762 165.728 12.3402 165.787 12.0415 165.904C11.7535 166.011 11.4975 166.123 11.2735 166.24C11.0602 166.357 10.8735 166.416 10.7135 166.416C10.5108 166.416 10.3562 166.373 10.2495 166.288C10.1428 166.192 10.0735 166.075 10.0415 165.936C10.0095 165.797 9.99883 165.669 10.0095 165.552L10.6335 161.408C10.6655 161.269 10.7402 161.147 10.8575 161.04C10.9748 160.933 11.1188 160.88 11.2895 160.88H16.0415C16.2122 160.88 16.3562 160.939 16.4735 161.056C16.5908 161.173 16.6495 161.323 16.6495 161.504C16.6495 161.675 16.5908 161.819 16.4735 161.936C16.3562 162.043 16.2122 162.096 16.0415 162.096H11.6095L11.7695 161.952L11.1775 165.568L10.9215 165.232C11.0388 165.125 11.2148 165.019 11.4495 164.912C11.6948 164.805 11.9722 164.715 12.2815 164.64C12.6015 164.565 12.9268 164.528 13.2575 164.528C13.9508 164.528 14.5695 164.688 15.1135 165.008C15.6682 165.317 16.1055 165.744 16.4255 166.288C16.7455 166.832 16.9055 167.456 16.9055 168.16C16.9055 168.939 16.7348 169.621 16.3935 170.208C16.0522 170.795 15.5668 171.253 14.9375 171.584C14.3188 171.904 13.5828 172.064 12.7295 172.064Z" fill="#383B4D"/>
<rect x="50" y="165.5" width="688" height="1" fill="#383B4D" fill-opacity="0.24"/>
<path d="M4.816 224.16C3.93067 224.16 3.18933 223.909 2.592 223.408C2.00533 222.907 1.55733 222.219 1.248 221.344C0.949333 220.469 0.8 219.488 0.8 218.4C0.8 217.291 0.949333 216.304 1.248 215.44C1.55733 214.576 2.00533 213.893 2.592 213.392C3.18933 212.891 3.93067 212.64 4.816 212.64C5.70133 212.64 6.43733 212.891 7.024 213.392C7.62133 213.893 8.06933 214.576 8.368 215.44C8.66667 216.304 8.816 217.291 8.816 218.4C8.816 219.488 8.66667 220.469 8.368 221.344C8.06933 222.219 7.62133 222.907 7.024 223.408C6.43733 223.909 5.70133 224.16 4.816 224.16ZM4.816 222.864C5.38133 222.864 5.856 222.683 6.24 222.32C6.63467 221.957 6.93333 221.445 7.136 220.784C7.33867 220.112 7.44 219.317 7.44 218.4C7.44 217.472 7.33867 216.677 7.136 216.016C6.93333 215.344 6.63467 214.832 6.24 214.48C5.856 214.117 5.38133 213.936 4.816 213.936C4.25067 213.936 3.77067 214.117 3.376 214.48C2.992 214.832 2.69333 215.344 2.48 216.016C2.27733 216.677 2.176 217.472 2.176 218.4C2.176 219.317 2.27733 220.112 2.48 220.784C2.69333 221.445 2.992 221.957 3.376 222.32C3.77067 222.683 4.25067 222.864 4.816 222.864Z" fill="#383B4D"/>
<rect x="50" y="217.5" width="688" height="1" fill="#383B4D" fill-opacity="0.24"/>
</svg>
