<svg width="24" height="24" viewBox="0 0 24 24" fill="none" xmlns="http://www.w3.org/2000/svg">
<path d="M4.71562 11.0344C4.59603 10.8887 4.53491 10.7037 4.54416 10.5154C4.5534 10.3271 4.63236 10.149 4.76566 10.0157C4.89896 9.88236 5.07708 9.8034 5.26537 9.79416C5.45366 9.78491 5.63865 9.84603 5.78438 9.96563L11.25 15.4406V3C11.25 2.80109 11.329 2.61032 11.4697 2.46967C11.6103 2.32902 11.8011 2.25 12 2.25C12.1989 2.25 12.3897 2.32902 12.5303 2.46967C12.671 2.61032 12.75 2.80109 12.75 3V15.4406L18.2156 9.96563C18.3613 9.84603 18.5463 9.78491 18.7346 9.79416C18.9229 9.8034 19.101 9.88236 19.2343 10.0157C19.3676 10.149 19.4466 10.3271 19.4558 10.5154C19.4651 10.7037 19.404 10.8887 19.2844 11.0344L12.5344 17.7844C12.391 17.923 12.1994 18.0005 12 18.0005C11.8006 18.0005 11.609 17.923 11.4656 17.7844L4.71562 11.0344ZM20.25 19.5H3.75C3.55109 19.5 3.36032 19.579 3.21967 19.7197C3.07902 19.8603 3 20.0511 3 20.25C3 20.4489 3.07902 20.6397 3.21967 20.7803C3.36032 20.921 3.55109 21 3.75 21H20.25C20.4489 21 20.6397 20.921 20.7803 20.7803C20.921 20.6397 21 20.4489 21 20.25C21 20.0511 20.921 19.8603 20.7803 19.7197C20.6397 19.579 20.4489 19.5 20.25 19.5Z" fill="#383B4D"/>
</svg>
