<svg width="27" height="30" viewBox="0 0 27 30" fill="none" xmlns="http://www.w3.org/2000/svg">
<path d="M25.7498 7.85011H25.7373C25.5578 7.54583 25.3041 7.29208 24.9998 7.11261L13.9998 0.900108C13.6995 0.733759 13.3618 0.646484 13.0185 0.646484C12.6752 0.646484 12.3376 0.733759 12.0373 0.900108L1.03729 7.08761C0.726696 7.26309 0.467968 7.5175 0.287294 7.82511C0.287294 7.82675 0.28697 7.82838 0.286342 7.82989C0.285714 7.83141 0.284793 7.83279 0.283633 7.83395C0.282472 7.83511 0.281094 7.83603 0.279577 7.83666C0.278061 7.83729 0.276436 7.83761 0.274794 7.83761V7.86261C0.0997849 8.15749 0.00899252 8.49472 0.012294 8.83761V21.1626C0.012926 21.5189 0.108151 21.8687 0.288238 22.1762C0.468325 22.4836 0.726816 22.7378 1.03729 22.9126L12.0373 29.1001C12.3142 29.2512 12.6221 29.3367 12.9373 29.3501H13.1123C13.4232 29.3348 13.7266 29.2494 13.9998 29.1001L24.9998 22.9126C25.3071 22.7352 25.5624 22.4801 25.7401 22.173C25.9178 21.8659 26.0116 21.5174 26.0123 21.1626V8.83761C26.0141 8.49096 25.9235 8.15009 25.7498 7.85011ZM13.0123 2.65011L22.9873 8.25011L19.1498 10.4251L9.07479 4.86261L13.0123 2.65011ZM13.1248 13.8501L3.06229 8.25011L7.02479 6.02511L17.1123 11.5876L13.1248 13.8501ZM2.01229 9.95011L12.1248 15.5876L12.0248 26.8001L2.01229 21.1626V9.95011ZM14.0248 26.7876L14.1248 15.5876L18.1373 13.3001V18.0626C18.1373 18.3278 18.2427 18.5822 18.4302 18.7697C18.6177 18.9573 18.8721 19.0626 19.1373 19.0626C19.4025 19.0626 19.6569 18.9573 19.8444 18.7697C20.0319 18.5822 20.1373 18.3278 20.1373 18.0626V12.1626L24.0123 9.96261V21.1626L14.0248 26.7876Z" fill="#3D3D3D"/>
<path d="M25.7498 7.85011H25.7373C25.5578 7.54583 25.3041 7.29208 24.9998 7.11261L13.9998 0.900108C13.6995 0.733759 13.3618 0.646484 13.0185 0.646484C12.6752 0.646484 12.3376 0.733759 12.0373 0.900108L1.03729 7.08761C0.726696 7.26309 0.467968 7.5175 0.287294 7.82511C0.287294 7.82675 0.28697 7.82838 0.286342 7.82989C0.285714 7.83141 0.284793 7.83279 0.283633 7.83395C0.282472 7.83511 0.281094 7.83603 0.279577 7.83666C0.278061 7.83729 0.276436 7.83761 0.274794 7.83761V7.86261C0.0997849 8.15749 0.00899252 8.49472 0.012294 8.83761V21.1626C0.012926 21.5189 0.108151 21.8687 0.288238 22.1762C0.468325 22.4836 0.726816 22.7378 1.03729 22.9126L12.0373 29.1001C12.3142 29.2512 12.6221 29.3367 12.9373 29.3501H13.1123C13.4232 29.3348 13.7266 29.2494 13.9998 29.1001L24.9998 22.9126C25.3071 22.7352 25.5624 22.4801 25.7401 22.173C25.9178 21.8659 26.0116 21.5174 26.0123 21.1626V8.83761C26.0141 8.49096 25.9235 8.15009 25.7498 7.85011ZM13.0123 2.65011L22.9873 8.25011L19.1498 10.4251L9.07479 4.86261L13.0123 2.65011ZM13.1248 13.8501L3.06229 8.25011L7.02479 6.02511L17.1123 11.5876L13.1248 13.8501ZM2.01229 9.95011L12.1248 15.5876L12.0248 26.8001L2.01229 21.1626V9.95011ZM14.0248 26.7876L14.1248 15.5876L18.1373 13.3001V18.0626C18.1373 18.3278 18.2427 18.5822 18.4302 18.7697C18.6177 18.9573 18.8721 19.0626 19.1373 19.0626C19.4025 19.0626 19.6569 18.9573 19.8444 18.7697C20.0319 18.5822 20.1373 18.3278 20.1373 18.0626V12.1626L24.0123 9.96261V21.1626L14.0248 26.7876Z" fill="url(#paint0_linear_607_3039)"/>
<defs>
<linearGradient id="paint0_linear_607_3039" x1="13.0123" y1="0.646484" x2="13.0123" y2="29.3501" gradientUnits="userSpaceOnUse">
<stop stop-color="#04B8A5"/>
<stop offset="1" stop-color="#049BB7"/>
</linearGradient>
</defs>
</svg>
