<svg width="26" height="27" viewBox="0 0 26 27" fill="none" xmlns="http://www.w3.org/2000/svg">
<path d="M9.5 11.5625C9.65248 11.473 9.77888 11.3451 9.8666 11.1916C9.95432 11.0381 10.0003 10.8643 10 10.6875V1.6875C10.0014 1.52641 9.96386 1.36737 9.89058 1.22391C9.8173 1.08045 9.71045 0.956821 9.57911 0.863537C9.44778 0.770252 9.29585 0.710078 9.13626 0.688133C8.97667 0.666189 8.81414 0.683125 8.6625 0.7375C6.13078 1.63936 3.93964 3.3016 2.38898 5.49669C0.838316 7.69177 0.00392221 10.3124 0 13C0.00135411 13.7964 0.0724593 14.5911 0.2125 15.375C0.242851 15.5332 0.310984 15.6818 0.411098 15.808C0.511212 15.9342 0.640343 16.0344 0.7875 16.1C0.915698 16.164 1.05672 16.1982 1.2 16.2C1.37586 16.1989 1.54832 16.1515 1.7 16.0625L9.5 11.5625ZM8 3.2V10.1125L2.0125 13.575C2 13.375 2 13.1875 2 13C2.00384 10.9731 2.56576 8.98632 3.62413 7.25763C4.68251 5.52895 6.19647 4.12509 8 3.2ZM24.2875 6.55C24.2746 6.53605 24.2659 6.5187 24.2625 6.5L24.2125 6.4375C23.0685 4.47875 21.4314 2.85378 19.4642 1.72435C17.497 0.594918 15.2684 0.000408875 13 0C12.7348 0 12.4804 0.105357 12.2929 0.292893C12.1054 0.48043 12 0.734784 12 1V12.425L2.1125 18.1375C1.99725 18.2012 1.89591 18.2873 1.81443 18.3907C1.73294 18.4941 1.67297 18.6128 1.63802 18.7398C1.60308 18.8667 1.59389 18.9994 1.61097 19.1299C1.62805 19.2605 1.67107 19.3863 1.7375 19.5V19.525L1.775 19.5875C3.21693 22.0558 5.43226 23.9801 8.0781 25.0624C10.7239 26.1447 13.6528 26.3247 16.4112 25.5746C19.1697 24.8245 21.6041 23.1861 23.3374 20.9129C25.0708 18.6398 26.0066 15.8586 26 13C26.003 10.7372 25.4126 8.51325 24.2875 6.55ZM14 2.05C15.5855 2.19645 17.1204 2.68458 18.4993 3.48081C19.8781 4.27705 21.0682 5.3625 21.9875 6.6625L14 11.2625V2.05ZM13 24C11.2386 23.9964 9.50363 23.5712 7.94009 22.7601C6.37655 21.949 5.02985 20.7754 4.0125 19.3375L22.9875 8.3875C23.7617 10.0636 24.1015 11.9077 23.9757 13.7497C23.8499 15.5917 23.2624 17.3724 22.2675 18.9277C21.2725 20.483 19.9021 21.7628 18.2825 22.6493C16.663 23.5357 14.8463 24.0002 13 24Z" fill="#3D3D3D"/>
<path d="M9.5 11.5625C9.65248 11.473 9.77888 11.3451 9.8666 11.1916C9.95432 11.0381 10.0003 10.8643 10 10.6875V1.6875C10.0014 1.52641 9.96386 1.36737 9.89058 1.22391C9.8173 1.08045 9.71045 0.956821 9.57911 0.863537C9.44778 0.770252 9.29585 0.710078 9.13626 0.688133C8.97667 0.666189 8.81414 0.683125 8.6625 0.7375C6.13078 1.63936 3.93964 3.3016 2.38898 5.49669C0.838316 7.69177 0.00392221 10.3124 0 13C0.00135411 13.7964 0.0724593 14.5911 0.2125 15.375C0.242851 15.5332 0.310984 15.6818 0.411098 15.808C0.511212 15.9342 0.640343 16.0344 0.7875 16.1C0.915698 16.164 1.05672 16.1982 1.2 16.2C1.37586 16.1989 1.54832 16.1515 1.7 16.0625L9.5 11.5625ZM8 3.2V10.1125L2.0125 13.575C2 13.375 2 13.1875 2 13C2.00384 10.9731 2.56576 8.98632 3.62413 7.25763C4.68251 5.52895 6.19647 4.12509 8 3.2ZM24.2875 6.55C24.2746 6.53605 24.2659 6.5187 24.2625 6.5L24.2125 6.4375C23.0685 4.47875 21.4314 2.85378 19.4642 1.72435C17.497 0.594918 15.2684 0.000408875 13 0C12.7348 0 12.4804 0.105357 12.2929 0.292893C12.1054 0.48043 12 0.734784 12 1V12.425L2.1125 18.1375C1.99725 18.2012 1.89591 18.2873 1.81443 18.3907C1.73294 18.4941 1.67297 18.6128 1.63802 18.7398C1.60308 18.8667 1.59389 18.9994 1.61097 19.1299C1.62805 19.2605 1.67107 19.3863 1.7375 19.5V19.525L1.775 19.5875C3.21693 22.0558 5.43226 23.9801 8.0781 25.0624C10.7239 26.1447 13.6528 26.3247 16.4112 25.5746C19.1697 24.8245 21.6041 23.1861 23.3374 20.9129C25.0708 18.6398 26.0066 15.8586 26 13C26.003 10.7372 25.4126 8.51325 24.2875 6.55ZM14 2.05C15.5855 2.19645 17.1204 2.68458 18.4993 3.48081C19.8781 4.27705 21.0682 5.3625 21.9875 6.6625L14 11.2625V2.05ZM13 24C11.2386 23.9964 9.50363 23.5712 7.94009 22.7601C6.37655 21.949 5.02985 20.7754 4.0125 19.3375L22.9875 8.3875C23.7617 10.0636 24.1015 11.9077 23.9757 13.7497C23.8499 15.5917 23.2624 17.3724 22.2675 18.9277C21.2725 20.483 19.9021 21.7628 18.2825 22.6493C16.663 23.5357 14.8463 24.0002 13 24Z" fill="url(#paint0_linear_607_3120)"/>
<defs>
<linearGradient id="paint0_linear_607_3120" x1="13" y1="0" x2="13" y2="26.0302" gradientUnits="userSpaceOnUse">
<stop stop-color="#04B8A5"/>
<stop offset="1" stop-color="#049BB8"/>
</linearGradient>
</defs>
</svg>
